<?xml version="1.0" encoding="UTF-8" standalone="no"?>
<!-- Created with Inkscape (http://www.inkscape.org/) -->

<svg
   xmlns:dc="http://purl.org/dc/elements/1.1/"
   xmlns:cc="http://creativecommons.org/ns#"
   xmlns:rdf="http://www.w3.org/1999/02/22-rdf-syntax-ns#"
   xmlns:svg="http://www.w3.org/2000/svg"
   xmlns="http://www.w3.org/2000/svg"
   xmlns:sodipodi="http://sodipodi.sourceforge.net/DTD/sodipodi-0.dtd"
   xmlns:inkscape="http://www.inkscape.org/namespaces/inkscape"
   width="1153"
   height="1558.123"
   id="svg1591"
   sodipodi:version="0.32"
   inkscape:version="0.48.2 r9819"
   version="1.0"
   sodipodi:docname="AJAX1.svg">
  <defs
     id="defs1593" />
  <sodipodi:namedview
     id="base"
     pagecolor="#ffffff"
     bordercolor="#666666"
     borderopacity="1.0"
     inkscape:pageopacity="0.0"
     inkscape:pageshadow="2"
     inkscape:zoom="0.35156878"
     inkscape:cx="984.70154"
     inkscape:cy="693.97735"
     inkscape:document-units="px"
     inkscape:current-layer="layer1"
     inkscape:window-width="1280"
     inkscape:window-height="1004"
     inkscape:window-x="-8"
     inkscape:window-y="-8"
     showguides="true"
     inkscape:guide-bbox="true"
     showgrid="false"
     fit-margin-top="0.2"
     fit-margin-left="0.2"
     fit-margin-right="0.2"
     fit-margin-bottom="0.2"
     inkscape:window-maximized="1" />
  <metadata
     id="metadata1596">
    <rdf:RDF>
      <cc:Work
         rdf:about="">
        <dc:format>image/svg+xml</dc:format>
        <dc:type
           rdf:resource="http://purl.org/dc/dcmitype/StillImage" />
      </cc:Work>
    </rdf:RDF>
  </metadata>
  <g
     inkscape:label="Layer 1"
     inkscape:groupmode="layer"
     id="layer1"
     transform="translate(-3923.5602,-721.0231)">
    <g
       id="g1743">
      <path
         transform="matrix(11.73503,0,0,11.82613,-4.174397,33.45973)"
         d="m 432.42941,124.00847 a 48.606407,65.367233 0 1 1 -97.21282,0 48.606407,65.367233 0 1 1 97.21282,0 z"
         sodipodi:ry="65.367233"
         sodipodi:rx="48.606407"
         sodipodi:cy="124.00847"
         sodipodi:cx="383.823"
         id="path2477"
         style="color:#000000;fill:#fbea0e;fill-opacity:1;fill-rule:evenodd;stroke:#000000;stroke-width:1;stroke-linecap:butt;stroke-linejoin:miter;stroke-miterlimit:4;stroke-opacity:1;stroke-dasharray:none;stroke-dashoffset:0;marker:none;visibility:visible;display:inline;overflow:visible"
         sodipodi:type="arc" />
      <path
         sodipodi:type="arc"
         style="color:#000000;fill:#0074a8;fill-opacity:1;fill-rule:evenodd;stroke:#000000;stroke-width:1.28469598;stroke-linecap:butt;stroke-linejoin:miter;stroke-miterlimit:4;stroke-opacity:1;stroke-dasharray:none;stroke-dashoffset:0;marker:none;visibility:visible;display:inline;overflow:visible"
         id="path3274"
         sodipodi:cx="383.823"
         sodipodi:cy="124.00847"
         sodipodi:rx="48.606407"
         sodipodi:ry="65.367233"
         d="m 432.42941,124.00847 a 48.606407,65.367233 0 1 1 -97.21282,0 48.606407,65.367233 0 1 1 97.21282,0 z"
         transform="matrix(8.685437,0,0,9.681316,1166.328,299.4401)" />
      <g
         transform="matrix(11.73503,0,0,11.75137,0.742827,56.55116)"
         id="g2903">
        <path
           sodipodi:nodetypes="ccscccscccsc"
           id="path2798"
           d="m 377.8504,121.11141 c -0.18876,0.7782 -1.70095,1.76422 -3.16591,1.08376 0.13561,0.45128 0.27217,0.72321 -0.15948,0.94519 -0.68012,0.36359 -1.58239,0.40499 -2.2422,-0.0272 -0.87947,-0.32402 -1.67618,-1.01226 -1.90609,-1.94927 -0.11055,-0.38492 -0.15236,-0.78648 -0.15709,-1.18596 0.37617,-0.72056 1.12853,-1.24785 1.93583,-1.34927 0.45185,-0.051 0.60438,0.46835 0.94187,0.77187 0.0692,-1.84428 2.27092,-2.47649 3.45795,-1.98604 0.39149,0.12061 0.002,0.59147 0.0825,0.88844 -0.0443,0.94637 0.33113,1.88617 0.98275,2.56879 0.0741,0.0823 0.15087,0.16211 0.22985,0.2397 z"
           style="fill:#008751;fill-opacity:1;fill-rule:evenodd;stroke:#000000;stroke-width:0.5;stroke-linecap:round;stroke-linejoin:miter;stroke-miterlimit:4;stroke-opacity:1"
           inkscape:connector-curvature="0" />
        <path
           sodipodi:nodetypes="ccsccscscc"
           style="fill:#ffffff;fill-opacity:1;fill-rule:evenodd;stroke:#000000;stroke-width:0.5;stroke-linecap:round;stroke-linejoin:miter;stroke-miterlimit:4;stroke-opacity:1"
           d="m 369.24771,119.84375 c -0.76068,0.0147 -1.51344,0.62513 -1.41278,1.8311 -0.82325,-1.48838 -2.31712,0.88878 -1.58858,2.39466 0.6729,1.39088 1.0229,1.21684 1.66641,1.49369 0.83237,0.22323 2.73667,-0.10079 1.98156,-0.87239 0.79124,0.29987 2.15808,-0.11696 2.37622,-0.98116 0.0814,-0.30157 0.16918,-0.68139 -0.24645,-0.72233 -0.75464,-0.33003 -1.40008,-0.9551 -1.62806,-1.76155 -0.12707,-0.40604 -0.17465,-0.83285 -0.17957,-1.25702 -0.31549,-0.084 -0.64224,-0.12658 -0.96875,-0.125 z"
           id="path2800"
           inkscape:connector-curvature="0" />
        <path
           sodipodi:nodetypes="csccccccc"
           id="path2805"
           d="m 379.98793,117.18902 c -0.89182,-1.16791 -2.27005,-0.98357 -2.89167,-0.36878 -0.40517,0.40806 -0.42905,1.02215 -0.46705,1.56136 -0.0456,1.02934 0.45258,2.01337 1.18348,2.71493 0.39112,0.34501 2.51097,0.43615 2.7977,-0.74979 1.15123,1.18104 2.6336,0.48352 2.79357,0.13418 0,-1.14989 0,-2.29978 0,-3.44967 -0.31076,-0.52998 -0.9442,-0.73979 -1.50188,-0.90062 -0.79266,-0.20269 -1.82967,-0.25845 -1.91415,1.05839 z"
           style="fill:#ffffff;fill-opacity:1;fill-rule:evenodd;stroke:#000000;stroke-width:0.5;stroke-linecap:round;stroke-linejoin:miter;stroke-miterlimit:4;stroke-opacity:1"
           inkscape:connector-curvature="0" />
        <path
           style="fill:#ffffff;fill-opacity:1;fill-rule:evenodd;stroke:#000000;stroke-width:0.5;stroke-linecap:round;stroke-linejoin:miter;stroke-miterlimit:4;stroke-opacity:1"
           d="m 388.95756,121.11141 c 0.18876,0.7782 1.70095,1.76422 3.16591,1.08376 -0.13561,0.45128 -0.27217,0.72321 0.15948,0.94519 0.68012,0.36359 1.58239,0.40499 2.2422,-0.0272 0.87947,-0.32402 1.67618,-1.01226 1.90609,-1.94927 0.11055,-0.38492 0.15236,-0.78648 0.15709,-1.18596 -0.37617,-0.72056 -1.12853,-1.24785 -1.93583,-1.34927 -0.45185,-0.051 -0.60438,0.46835 -0.94187,0.77187 -0.0692,-1.84428 -2.27092,-2.47649 -3.45795,-1.98604 -0.39149,0.12061 -0.002,0.59147 -0.0825,0.88844 0.0443,0.94637 -0.33113,1.88617 -0.98275,2.56879 -0.0741,0.0823 -0.15087,0.16211 -0.22985,0.2397 z"
           id="path2861"
           sodipodi:nodetypes="ccscccscccsc"
           inkscape:connector-curvature="0" />
        <path
           id="path2863"
           d="m 397.56025,119.84375 c 0.76068,0.0147 1.51344,0.62513 1.41278,1.8311 0.82325,-1.48838 2.31712,0.88878 1.58858,2.39466 -0.6729,1.39088 -1.0229,1.21684 -1.66641,1.49369 -0.83237,0.22323 -2.73667,-0.10079 -1.98156,-0.87239 -0.79124,0.29987 -2.15808,-0.11696 -2.37622,-0.98116 -0.0813,-0.30157 -0.16918,-0.68139 0.24645,-0.72233 0.75464,-0.33003 1.40008,-0.9551 1.62806,-1.76155 0.12707,-0.40604 0.17465,-0.83285 0.17957,-1.25702 0.31549,-0.084 0.64224,-0.12658 0.96875,-0.125 z"
           style="fill:#008751;fill-opacity:1;fill-rule:evenodd;stroke:#000000;stroke-width:0.5;stroke-linecap:round;stroke-linejoin:miter;stroke-miterlimit:4;stroke-opacity:1"
           sodipodi:nodetypes="ccsccscscc"
           inkscape:connector-curvature="0" />
        <path
           style="fill:#008751;fill-opacity:1;fill-rule:evenodd;stroke:#000000;stroke-width:0.5;stroke-linecap:round;stroke-linejoin:miter;stroke-miterlimit:4;stroke-opacity:1"
           d="m 386.82003,117.18902 c 0.89182,-1.16791 2.27005,-0.98357 2.89167,-0.36878 0.40517,0.40806 0.42905,1.02215 0.46705,1.56136 0.0456,1.02934 -0.45258,2.01337 -1.18348,2.71493 -0.39112,0.34501 -2.51097,0.43615 -2.7977,-0.74979 -1.15123,1.18104 -2.6336,0.48352 -2.79357,0.13418 0,-1.14989 0,-2.29978 0,-3.44967 0.31076,-0.52998 0.9442,-0.73979 1.50188,-0.90062 0.79266,-0.20269 1.82967,-0.25845 1.91415,1.05839 z"
           id="path2865"
           sodipodi:nodetypes="csccccccc"
           inkscape:connector-curvature="0" />
      </g>
      <g
         id="g2460">
        <path
           style="fill:#ffffff;fill-opacity:1;fill-rule:evenodd;stroke:#000000;stroke-width:5.87159872;stroke-linecap:square;stroke-linejoin:miter;stroke-miterlimit:4;stroke-opacity:1;stroke-dasharray:none"
           d="m 4393.6513,1997.7306 c -5.0443,-2.7856 -10.037,-6.9318 -15.0355,-9.548 -5.3207,-2.7847 -9.8182,-5.7469 -15.0355,-8.4463 -2.1353,4.6862 -5.9247,9.6472 -7.3344,14.322 -8.0003,26.5287 -5.1938,50.1672 -6.2342,77.1183 l -0.7335,17.6271 35.2051,1.4689 0.7334,-17.627 c 1.1443,-29.6403 -0.7354,-50.0576 4.7674,-68.3049 0.6237,-2.0682 2.8298,-4.4949 3.6672,-6.6101 z"
           id="path3206"
           inkscape:connector-curvature="0" />
        <path
           style="fill:#ffffff;fill-opacity:1;fill-rule:evenodd;stroke:#000000;stroke-width:5.87159872;stroke-linecap:butt;stroke-linejoin:miter;stroke-miterlimit:4;stroke-opacity:1;stroke-dasharray:none"
           d="m 4299.7711,1526.9413 0,43.7004 165.7573,0 0,396.2415 c -60.9386,-13.9106 -114.8833,-41.9491 -163.557,-80.4234 17.2121,-11.6067 44.7199,-13.4083 74.0774,-12.8531 -49.0752,-11.1173 -109.3089,-26.934 -182.2597,-67.9376 11.591,81.3142 43.8673,142.4238 86.5458,186.553 -5.4219,-28.4205 -8.7644,-56.7768 -8.0678,-85.1974 48.1324,82.3813 160.0413,71.0236 227.7329,189.1236 67.6914,-118.1 179.6005,-106.7423 227.7329,-189.1236 0.6967,28.4206 -2.6459,56.7769 -8.0678,85.1974 42.6783,-44.1292 74.9548,-105.2388 86.5458,-186.553 -72.9507,41.0036 -133.1844,56.8203 -182.2596,67.9376 29.3571,-0.5552 56.8652,1.2464 74.0773,12.8531 -48.6739,38.4743 -102.6183,66.5128 -163.5569,80.4234 l 0,-396.2415 165.7573,0 0,-43.7004 -400.4579,0 z"
           id="path3173"
           sodipodi:nodetypes="cccccccccccccccccccc"
           inkscape:connector-curvature="0" />
        <path
           style="fill:#ffffff;fill-opacity:1;fill-rule:evenodd;stroke:#000000;stroke-width:5.87159872;stroke-linecap:square;stroke-linejoin:miter;stroke-miterlimit:4;stroke-opacity:1;stroke-dasharray:none"
           d="m 4534.4717,1673.099 0,37.8247 c 13.2913,5.7925 25.3927,12.0671 34.4716,19.096 15.7826,12.2187 23.9352,24.6465 23.4701,46.271 -0.3251,14.7884 -5.4974,25.8395 -15.4023,37.0903 -9.9048,11.2507 -24.7597,21.8807 -42.1727,31.949 -0.06,0.064 -0.3063,0.3032 -0.3667,0.3672 -21.2177,12.2284 -45.3336,24.1517 -68.9433,37.0903 -15.0758,8.2618 -30.3684,16.3486 -43.273,26.8078 -13.5875,11.0128 -21.7467,20.9314 -30.8044,30.8474 0.1453,0.1226 0.2296,0.6036 0.3667,0.7344 0.067,0.067 1.3623,1.4218 1.4669,1.4689 10.2164,4.6056 20.5175,8.759 31.1712,12.4859 1.0187,-0.5354 2.1989,-1.2148 3.3004,-1.8362 5.7971,-5.5006 9.0697,-9.8367 16.8691,-16.1581 5.6289,-4.5621 14.0135,-8.5622 20.9031,-12.8531 20.7213,-12.9056 44.1274,-25.6778 68.9433,-38.9264 6.03,-3.2194 12.1001,-6.1543 17.9692,-9.548 19.0268,-11.0015 36.9775,-23.395 50.9741,-39.2936 13.9966,-15.8987 23.6855,-35.9275 24.2035,-59.4913 0.6975,-32.4324 -15.255,-58.0502 -37.0387,-74.915 -16.3813,-12.6823 -36.0138,-21.3136 -56.1081,-29.0112 z"
           id="path3202"
           sodipodi:nodetypes="ccssssssscssccsssssssc"
           inkscape:connector-curvature="0" />
        <path
           style="color:#000000;fill:#ffffff;fill-opacity:1;fill-rule:evenodd;stroke:#000000;stroke-width:5.87159872;stroke-linecap:square;stroke-linejoin:miter;stroke-miterlimit:4;stroke-opacity:1;stroke-dasharray:none;stroke-dashoffset:0;marker:none;visibility:visible;display:inline;overflow:visible"
           d="m 4496.3438,1452.4063 c -20.1648,1.7951 -35.9377,18.9995 -35.9375,39.6562 -3e-4,21.8518 17.7721,39.6562 39.5937,39.6563 21.8214,-1e-4 39.5939,-17.8045 39.5938,-39.6563 2e-4,-21.8517 -17.7725,-39.6562 -39.5938,-39.6562 -1.0068,0 -3.474,-0.016 -3.6562,0 z m 3.0625,30.2187 c 0.1998,-0.013 0.3907,0 0.5937,0 5.1964,0 9.4063,4.2099 9.4063,9.4063 1e-4,5.1963 -4.2099,9.4062 -9.4063,9.4062 -5.1964,0 -9.4062,-4.2099 -9.4062,-9.4062 -2e-4,-4.9934 3.8973,-9.0944 8.8125,-9.4063 z"
           id="path3168"
           sodipodi:nodetypes="ccsssscssssc"
           inkscape:connector-curvature="0" />
        <path
           style="fill:#ffffff;fill-opacity:1;fill-rule:evenodd;stroke:#000000;stroke-width:5.87159872;stroke-linecap:square;stroke-linejoin:miter;stroke-miterlimit:4;stroke-opacity:1;stroke-dasharray:none"
           d="m 4396.9518,1570.6417 -35.5718,0 c -0.1815,14.211 1.625,29.2003 7.3344,45.1694 9.3266,26.0866 31.6367,42.2307 56.1081,53.9828 12.694,6.0962 26.8874,10.2474 40.7059,15.0565 l 0,-37.4575 c -8.3356,-3.0687 -18.5813,-5.7763 -25.6704,-9.1808 -20.6969,-9.9394 -33.4246,-20.9664 -38.1389,-34.1524 -4.6443,-12.9903 -4.9926,-23.3836 -4.7673,-33.418 z"
           id="path3194"
           inkscape:connector-curvature="0" />
        <path
           style="fill:#ffffff;fill-opacity:1;fill-rule:evenodd;stroke:#000000;stroke-width:5.87159872;stroke-linecap:square;stroke-linejoin:miter;stroke-miterlimit:4;stroke-opacity:1;stroke-dasharray:none"
           d="m 4477.2634,1475.8963 -17.2358,2.5706 c -27.2423,4.1927 -62.1316,8.1879 -80.6784,33.7852 -3.1953,4.4101 -5.6174,9.6551 -8.0678,14.6892 l 43.6396,0 c 13.6904,-10.2002 34.8769,-11.223 50.2406,-13.5875 l 17.6026,-2.5706 -5.5008,-34.8869 z"
           id="path3187"
           inkscape:connector-curvature="0" />
        <path
           style="color:#000000;fill:#ffffff;fill-opacity:1;fill-rule:evenodd;stroke:#000000;stroke-width:5.87159872;stroke-linecap:square;stroke-linejoin:miter;stroke-miterlimit:4;stroke-opacity:1;stroke-dasharray:none;stroke-dashoffset:0;marker:none;visibility:visible;display:inline;overflow:visible"
           d="m 4434.0335,1483.0194 6.0059,32.5477"
           id="path3213"
           inkscape:connector-curvature="0" />
        <path
           style="color:#000000;fill:#ffffff;fill-opacity:1;fill-rule:evenodd;stroke:#000000;stroke-width:5.87159872;stroke-linecap:square;stroke-linejoin:miter;stroke-miterlimit:4;stroke-opacity:1;stroke-dasharray:none;stroke-dashoffset:0;marker:none;visibility:visible;display:inline;overflow:visible"
           d="m 4386.3398,1506.0151 18.7242,19.4578"
           id="path3217"
           inkscape:connector-curvature="0" />
        <path
           style="color:#000000;fill:#ffffff;fill-opacity:1;fill-rule:evenodd;stroke:#000000;stroke-width:5.87159872;stroke-linecap:square;stroke-linejoin:miter;stroke-miterlimit:4;stroke-opacity:1;stroke-dasharray:none;stroke-dashoffset:0;marker:none;visibility:visible;display:inline;overflow:visible"
           d="m 4363.3762,1591.6294 32.5023,-7.4293"
           id="path3219"
           inkscape:connector-curvature="0" />
        <path
           style="color:#000000;fill:#ffffff;fill-opacity:1;fill-rule:evenodd;stroke:#000000;stroke-width:5.87159872;stroke-linecap:square;stroke-linejoin:miter;stroke-miterlimit:4;stroke-opacity:1;stroke-dasharray:none;stroke-dashoffset:0;marker:none;visibility:visible;display:inline;overflow:visible"
           d="m 4383.1602,1637.6207 27.5564,-16.6276"
           id="path3223"
           inkscape:connector-curvature="0" />
        <path
           style="color:#000000;fill:#ffffff;fill-opacity:1;fill-rule:evenodd;stroke:#000000;stroke-width:5.87159872;stroke-linecap:square;stroke-linejoin:miter;stroke-miterlimit:4;stroke-opacity:1;stroke-dasharray:none;stroke-dashoffset:0;marker:none;visibility:visible;display:inline;overflow:visible"
           d="m 4440.3926,1640.0971 -14.4846,29.0098"
           id="path3229"
           inkscape:connector-curvature="0" />
        <path
           style="color:#000000;fill:#ffffff;fill-opacity:1;fill-rule:evenodd;stroke:#000000;stroke-width:5.87159872;stroke-linecap:square;stroke-linejoin:miter;stroke-miterlimit:4;stroke-opacity:1;stroke-dasharray:none;stroke-dashoffset:0;marker:none;visibility:visible;display:inline;overflow:visible"
           d="m 4562.3844,1688.6395 -14.9915,27.0221"
           id="path3233"
           inkscape:connector-curvature="0" />
        <path
           style="color:#000000;fill:#ffffff;fill-opacity:1;fill-rule:evenodd;stroke:#000000;stroke-width:5.87159872;stroke-linecap:square;stroke-linejoin:miter;stroke-miterlimit:4;stroke-opacity:1;stroke-dasharray:none;stroke-dashoffset:0;marker:none;visibility:visible;display:inline;overflow:visible"
           d="m 4597.3645,1712.6592 -20.9881,21.0173"
           id="path3235"
           inkscape:connector-curvature="0" />
        <path
           style="color:#000000;fill:#ffffff;fill-opacity:1;fill-rule:evenodd;stroke:#000000;stroke-width:5.87159872;stroke-linecap:square;stroke-linejoin:miter;stroke-miterlimit:4;stroke-opacity:1;stroke-dasharray:none;stroke-dashoffset:0;marker:none;visibility:visible;display:inline;overflow:visible"
           d="m 4592.3674,1759.6979 31.9818,-4.0032"
           id="path3239"
           inkscape:connector-curvature="0" />
        <path
           style="color:#000000;fill:#ffffff;fill-opacity:1;fill-rule:evenodd;stroke:#000000;stroke-width:5.87159872;stroke-linecap:square;stroke-linejoin:miter;stroke-miterlimit:4;stroke-opacity:1;stroke-dasharray:none;stroke-dashoffset:0;marker:none;visibility:visible;display:inline;overflow:visible"
           d="m 4589.3691,1796.7285 29.9829,10.0081"
           id="path3241"
           inkscape:connector-curvature="0" />
        <path
           style="color:#000000;fill:#ffffff;fill-opacity:1;fill-rule:evenodd;stroke:#000000;stroke-width:5.87159872;stroke-linecap:square;stroke-linejoin:miter;stroke-miterlimit:4;stroke-opacity:1;stroke-dasharray:none;stroke-dashoffset:0;marker:none;visibility:visible;display:inline;overflow:visible"
           d="m 4565.3827,1825.7523 18.9891,24.0198"
           id="path3243"
           inkscape:connector-curvature="0" />
        <path
           style="color:#000000;fill:#ffffff;fill-opacity:1;fill-rule:evenodd;stroke:#000000;stroke-width:5.87159872;stroke-linecap:square;stroke-linejoin:miter;stroke-miterlimit:4;stroke-opacity:1;stroke-dasharray:none;stroke-dashoffset:0;marker:none;visibility:visible;display:inline;overflow:visible"
           d="m 4528.4036,1850.7729 15.991,27.0223"
           id="path3245"
           sodipodi:nodetypes="cc"
           inkscape:connector-curvature="0" />
        <path
           style="color:#000000;fill:#ffffff;fill-opacity:1;fill-rule:evenodd;stroke:#000000;stroke-width:5.87159872;stroke-linecap:square;stroke-linejoin:miter;stroke-miterlimit:4;stroke-opacity:1;stroke-dasharray:none;stroke-dashoffset:0;marker:none;visibility:visible;display:inline;overflow:visible"
           d="m 4488.5559,1870.7895 19.2485,28.023"
           id="path3247"
           sodipodi:nodetypes="cc"
           inkscape:connector-curvature="0" />
        <path
           style="color:#000000;fill:#ffffff;fill-opacity:1;fill-rule:evenodd;stroke:#000000;stroke-width:5.87159872;stroke-linecap:square;stroke-linejoin:miter;stroke-miterlimit:4;stroke-opacity:1;stroke-dasharray:none;stroke-dashoffset:0;marker:none;visibility:visible;display:inline;overflow:visible"
           d="m 4451.4474,1890.8059 17.9897,28.0231"
           id="path3249"
           inkscape:connector-curvature="0" />
        <path
           style="color:#000000;fill:#ffffff;fill-opacity:1;fill-rule:evenodd;stroke:#000000;stroke-width:5.87159872;stroke-linecap:square;stroke-linejoin:miter;stroke-miterlimit:4;stroke-opacity:1;stroke-dasharray:none;stroke-dashoffset:0;marker:none;visibility:visible;display:inline;overflow:visible"
           d="m 4415.6434,1916.2158 22.8113,22.6296"
           id="path3251"
           sodipodi:nodetypes="cc"
           inkscape:connector-curvature="0" />
        <path
           style="color:#000000;fill:#ffffff;fill-opacity:1;fill-rule:evenodd;stroke:#000000;stroke-width:5.87159872;stroke-linecap:square;stroke-linejoin:miter;stroke-miterlimit:4;stroke-opacity:1;stroke-dasharray:none;stroke-dashoffset:0;marker:none;visibility:visible;display:inline;overflow:visible"
           d="m 4355.6435,2011.5239 27.2514,8.6177"
           id="path3268"
           inkscape:connector-curvature="0" />
        <path
           style="color:#000000;fill:#ffffff;fill-opacity:1;fill-rule:evenodd;stroke:#000000;stroke-width:5.87159872;stroke-linecap:square;stroke-linejoin:miter;stroke-miterlimit:4;stroke-opacity:1;stroke-dasharray:none;stroke-dashoffset:0;marker:none;visibility:visible;display:inline;overflow:visible"
           d="m 4352.0579,2051.0215 31.5541,2.8725"
           id="path3270"
           inkscape:connector-curvature="0" />
      </g>
      <path
         id="text3408"
         d="m 4048.6471,1425.6159 -83.8552,-9.6115 2.0654,-18.0712 61.508,-27.4877 -57.6113,-6.603 1.9482,-17.0454 83.8554,9.6114 -2.0396,17.8433 -61.534,27.7156 57.6114,6.6031 -1.9483,17.0454 m 17.7166,-119.9415 -82.4014,-18.2969 3.7585,-16.9737 82.4014,18.2969 -3.7585,16.9737 m 26.577,-127.8455 c 2.9819,4.3539 4.7553,8.7536 5.32,13.1991 0.5773,4.4103 -0.015,9.1637 -1.7776,14.2603 -3.8621,11.1697 -10.8554,18.8856 -20.98,23.1479 -10.1481,4.2128 -21.5212,4.1364 -34.1193,-0.2327 -12.7062,-4.4056 -21.674,-11.38 -26.9034,-20.9257 -5.2292,-9.5444 -5.8566,-20.0654 -1.8821,-31.5594 3.4622,-10.0134 8.6873,-17.3509 15.6754,-22.0115 6.9522,-4.6735 14.8218,-6.1554 23.6088,-4.4444 l -5.7932,16.7539 c -4.501,-0.4265 -8.3782,0.557 -11.6315,2.9508 -3.2406,2.3573 -5.7296,6.0484 -7.467,11.0733 -2.3121,6.6877 -1.6761,12.7972 1.9082,18.331 3.5609,5.4855 9.6549,9.7242 18.2822,12.7149 8.6634,3.0037 16.137,3.3692 22.4212,1.0953 6.2841,-2.2739 10.626,-6.8816 13.0257,-13.822 1.7998,-5.2047 1.7718,-10.0932 -0.084,-14.6633 -1.8559,-4.5702 -5.3113,-8.1966 -10.3663,-10.8806 l -6.2618,18.11 -13.6448,-4.7311 11.4361,-33.0754 43.1546,14.963 -3.8058,11.0075 -10.1152,-1.2609 m 34.3364,-55.7614 -74.4879,-39.7467 28.8052,-54.1338 12.9456,6.9087 -20.7484,38.991 15.8787,8.4739 18.9699,-35.6501 12.7433,6.7993 -18.9699,35.6501 19.1655,10.2272 21.7185,-40.816 13.7547,7.3399 -29.7752,55.9565 m 28.7189,-138.57914 12.6874,-15.99596 c 2.7561,-3.47488 4.0728,-6.57959 3.9499,-9.31531 -0.099,-2.7651 -1.6592,-5.3504 -4.6804,-7.75355 -2.8715,-2.28329 -5.6697,-3.21518 -8.3947,-2.7933 -2.7548,0.39837 -5.3796,2.1693 -7.8744,5.31514 l -13.1864,16.62348 17.4986,13.9195 m 26.397,43.19924 -66.0907,-52.56978 25.4462,-32.08006 c 5.7261,-7.21886 11.5076,-11.34007 17.3446,-12.36361 5.837,-1.02472 11.9262,0.98594 18.2676,6.02963 4.0381,3.21165 6.726,6.74176 8.0638,10.59033 1.3616,3.81919 1.2767,7.70889 -0.2546,11.6691 3.2979,-2.06706 6.4689,-2.86615 9.5131,-2.39962 3.068,0.43832 6.8867,2.32794 11.4563,5.66886 l 8.0209,5.94031 c 0.06,0.0482 0.1495,0.11869 0.2692,0.21388 4.0196,3.05065 7.0897,4.10122 9.2103,3.14936 l 2.0191,1.60641 -11.8322,14.91601 c -1.3074,-0.25735 -2.7411,-0.78734 -4.3009,-1.58878 -1.566,-0.85433 -3.315,-2.00126 -5.2471,-3.4408 l -7.0971,-5.35157 c -4.2167,-3.10942 -7.6014,-4.53133 -10.1537,-4.26575 -2.5288,0.23503 -5.2306,2.16578 -8.1054,5.7899 l -11.4402,14.42245 25.7095,20.44973 -10.7987,13.614 m 78.274,-88.11296 -55.4651,-63.70769 13.0868,-11.42585 55.465,63.70886 -13.0867,11.42468 m 49.4381,-117.68994 6.744,37.22598 20.6336,-11.12737 -27.3776,-26.09861 m -16.8941,-10.1144 17.657,-9.52213 66.8097,59.96722 -16.0427,8.65136 -13.2774,-12.58572 -28.8063,15.53531 3.339,17.94669 -16.0931,8.67956 -13.5862,-88.67229 m 125.0012,37.19425 -12.5724,-83.57807 17.9615,-2.70869 42.5207,52.30886 -8.6377,-57.4207 16.9416,-2.55475 12.5724,83.57689 -17.7348,2.67462 -42.7475,-52.27478 8.6377,57.4207 -16.9415,2.55592 m 327.3039,94.75714 61.7255,-57.64632 12.3886,13.30254 -19.0374,64.69832 42.4075,-39.60445 11.6851,12.54693 -61.7254,57.64516 -12.2323,-13.13451 18.881,-64.86636 -42.4075,39.60563 -11.6851,-12.54694 m 151.6121,83.92361 -36.7581,8.7441 12.2049,20.0338 24.5532,-28.7779 m 9.1783,-17.4367 10.4443,17.1452 -56.2083,70.0276 -9.4893,-15.5777 11.8375,-13.9524 -17.0391,-27.9705 -17.7162,4.3033 -9.5192,-15.6258 87.6903,-18.3497 m -20.2166,143.7897 66.9109,-59.1928 7.346,17.8209 -51.5243,40.7279 65.3418,-7.2071 7.2585,17.6082 -88.9926,5.6242 -6.3403,-15.3813 m 39.6177,118.328 -4.4636,-16.8009 30.4004,-8.0991 43.2844,-43.2967 5.4652,20.5719 -30.5222,26.8343 39.4493,6.7688 5.097,19.1864 -58.3102,-13.2626 -30.4003,8.0979"
         style="font-size:10px;font-style:normal;font-variant:normal;font-weight:bold;font-stretch:normal;text-align:center;line-height:100%;writing-mode:lr-tb;text-anchor:middle;fill:#000000;fill-opacity:1;stroke:none;font-family:Swis721 BT"
         inkscape:connector-curvature="0" />
      <path
         id="text3415"
         d="m 4009.314,1636.6304 c -9.1498,1.5665 -15.9187,4.8205 -20.3067,9.7631 -4.3503,4.9367 -5.901,11.0615 -4.6521,18.3768 1.2618,7.3904 4.7663,12.7091 10.5137,15.9548 5.7849,3.2398 13.2522,4.0754 22.4021,2.5089 9.1497,-1.5664 15.8965,-4.8357 20.2405,-9.81 4.3815,-4.9803 5.9413,-11.165 4.6797,-18.5554 -1.2491,-7.3153 -4.7439,-12.5775 -10.4847,-15.7856 -5.7409,-3.2082 -13.205,-4.0261 -22.3925,-2.4526 m -2.9839,-17.4766 c 13.4424,-2.3021 24.7228,-0.4689 33.8413,5.4985 9.1626,5.999 14.8061,15.2203 16.9306,27.6627 2.1244,12.4435 -0.1395,23.0174 -6.7912,31.724 -6.6456,8.7442 -16.6707,14.2638 -30.0753,16.5588 -13.4047,2.2951 -24.6915,0.4243 -33.8606,-5.6124 -9.1626,-5.9979 -14.8061,-15.2192 -16.9305,-27.6627 -2.1245,-12.4424 0.1392,-23.0174 6.7912,-31.724 6.6584,-8.669 16.6898,-14.1498 30.0945,-16.4449 m -16.2582,134.5285 80.5689,-25.1856 5.4123,17.3639 -45.1434,50.0573 55.3535,-17.3027 5.1051,16.3767 -80.5689,25.1843 -5.344,-17.1441 45.0751,-50.2758 -55.3535,17.3027 -5.1051,-16.3767 m 45.9257,129.1498 64.9547,-59.154 7.9711,16.1523 -46.9758,39.3764 58.7802,-15.4565 8.1996,16.6164 -47.9659,37.3694 59.7704,-13.4495 7.895,15.9983 -86.3551,15.788 -7.3365,-14.8655 52.1571,-40.4035 -63.7583,16.8949 -7.3365,-14.8667 m 133.8477,96.6221 -35.8934,11.809 13.8444,18.935 22.049,-30.744 m 7.6813,-18.1476 11.8473,16.204 -50.1273,74.5142 -10.7642,-14.7233 10.6237,-14.8996 -19.3279,-26.4358 -17.2921,5.7793 -10.798,-14.7691 85.8385,-25.6697 m 35.1881,100.0523 14.7226,14.1392 c 3.1982,3.0707 6.163,4.6724 8.8946,4.8052 2.759,0.1586 5.4738,-1.1564 8.1444,-3.945 2.5381,-2.6499 3.7245,-5.3539 3.559,-8.1096 -0.1393,-2.7839 -1.6564,-5.5654 -4.5512,-8.3458 l -15.3016,-14.6951 -15.4678,16.1511 m -45.4097,22.297 58.4206,-61.0013 29.528,28.3572 c 6.6444,6.381 10.204,12.5293 10.6789,18.445 0.4746,5.9144 -2.0906,11.7983 -7.696,17.6517 -3.5695,3.7275 -7.3299,6.079 -11.281,7.0543 -3.9236,1.0024 -7.7829,0.5547 -11.5779,-1.3408 1.7477,3.4808 2.2476,6.7171 1.4996,9.709 -0.7205,3.0177 -2.9546,6.6501 -6.7023,10.8947 l -6.6528,7.4445 c -0.053,0.055 -0.1323,0.1375 -0.238,0.2479 -3.4075,3.724 -4.737,6.6877 -3.9885,8.8899 l -1.7848,1.8638 -13.7301,-13.1862 c 0.3786,-1.2797 1.0387,-2.6593 1.9804,-4.14 0.9956,-1.4819 2.2988,-3.1188 3.9095,-4.9109 l 5.982,-6.5784 c 3.4844,-3.9144 5.2134,-7.1566 5.1867,-9.7266 0,-2.543 -1.6666,-5.4162 -5.0026,-8.6208 l -13.2752,-12.7479 -22.7257,23.7295 -12.5308,-12.0346 m 110.4787,73.6447 11.8822,7.2682 c 6.8782,4.2082 12.9448,5.4538 18.1997,3.7369 5.3072,-1.7286 10.4302,-6.6407 15.3689,-14.7362 4.9187,-8.0638 7.0988,-14.8655 6.5402,-20.4074 -0.5587,-5.5419 -3.8861,-10.1767 -9.982,-13.9066 l -13.6915,-8.3752 -28.3175,46.4203 m -22.4684,4.1412 43.9998,-72.1276 28.2142,17.2593 c 11.0509,6.7605 17.4598,14.7832 19.2271,24.0668 1.7996,9.3047 -1.0045,20.0278 -8.4123,32.1717 -4.0228,6.5937 -8.578,11.7866 -13.6658,15.5776 -5.0554,3.8109 -10.4259,6.0837 -16.1119,6.8193 -4.2626,0.53 -8.5282,0.1845 -12.7964,-1.0376 -4.2486,-1.2539 -9.6652,-3.8944 -16.2502,-7.9228 l -24.2045,-14.8067 m 286.3904,79.1948 -9.1363,-68.8243 -24.8217,3.3034 -1.9858,-14.9584 66.6836,-8.8769 1.9858,14.9594 -24.6514,3.281 9.1363,68.8243 -17.2105,2.2915 m 80.0003,-61.5325 c 3.7223,8.5162 8.5072,14.3108 14.3545,17.3849 5.832,3.0389 12.1424,3.0707 18.9313,0.094 6.8588,-3.006 11.1691,-7.6936 12.9308,-14.0616 1.7463,-6.4022 0.7584,-13.862 -2.964,-22.377 -3.7225,-8.515 -8.517,-14.285 -14.3841,-17.3086 -5.8823,-3.0589 -12.2529,-3.0847 -19.1118,-0.077 -6.7888,2.9754 -11.0465,7.6395 -12.7732,13.9923 -1.7267,6.3516 -0.7212,13.8032 3.0165,22.3535 m -16.2198,7.1107 c -5.4687,-12.5105 -6.4094,-23.9152 -2.8221,-34.2153 3.607,-10.3506 11.1846,-18.0571 22.7325,-23.1184 11.5481,-5.0625 22.3425,-5.4092 32.3832,-1.0424 10.0757,4.3527 17.8402,12.7667 23.2936,25.242 5.4533,12.4752 6.359,23.8952 2.717,34.2611 -3.607,10.3506 -11.1845,18.0559 -22.7325,23.1184 -11.5481,5.0625 -22.3425,5.4092 -32.3832,1.0412 -10.0056,-4.3833 -17.7351,-12.8113 -23.1885,-25.2866 m 174.0459,-65.6149 c 0.1673,5.2764 -0.7081,9.9393 -2.6266,13.9888 -1.8884,4.026 -4.9469,7.7089 -9.1753,11.0498 -9.2666,7.3223 -19.3106,10.0451 -30.1322,8.1672 -10.8153,-1.9307 -20.352,-8.1366 -28.61,-18.6165 -8.3291,-10.5715 -12.1261,-21.2876 -11.3909,-32.1506 0.7352,-10.8617 5.8711,-20.0607 15.4075,-27.5957 8.307,-6.5631 16.658,-9.9217 25.0532,-10.0744 8.3715,-0.1822 15.7968,2.8191 22.2761,9.0039 l -13.8999,10.9828 c -3.5609,-2.7898 -7.3557,-4.0542 -11.3844,-3.7957 -3.9988,0.2362 -8.0825,2.0013 -12.2509,5.2952 -5.548,4.3832 -8.3023,9.8735 -8.2631,16.4683 0.046,6.5432 2.896,13.4025 8.5512,20.5802 5.6789,7.2071 11.7768,11.5492 18.2936,13.0276 6.5168,1.4771 12.6541,-0.059 18.412,-4.6077 4.3184,-3.4126 6.9265,-7.5444 7.8241,-12.3954 0.8976,-4.851 -0.06,-9.7713 -2.8718,-14.7609 l -15.0246,11.8712 -8.9442,-11.3518 27.4399,-21.6801 28.2882,35.9016 -9.1317,7.2154 -7.8402,-6.5232 m 52.4383,-36.4692 -64.0052,-55.0963 39.9294,-46.5154 11.1237,9.5762 -28.7611,33.5043 13.6441,11.7455 26.2958,-30.6335 10.95,9.4258 -26.2959,30.6335 16.4685,14.1756 30.1057,-35.0708 11.8191,10.1732 -41.2741,48.0819 m 77.6702,-101.0782 -58.8213,-36.7536 -13.2555,21.2723 -12.7852,-7.9885 35.611,-57.1505 12.7851,7.9886 -13.1645,21.1278 58.8214,36.7536 -9.191,14.7503 m 42.5845,-74.4567 -77.275,-33.9943 7.029,-16.0218 28.8012,12.6691 14.0121,-31.9402 -28.8012,-12.6703 7.029,-16.023 77.2752,33.9943 -7.0291,16.023 -34.2571,-15.0699 -14.0121,31.9402 34.2572,15.0699 -7.0292,16.023 m 44.9688,-112.2326 -81.1079,-23.3852 16.9478,-58.9448 14.0961,4.0648 -12.2074,42.4577 17.2898,4.9849 11.1611,-38.8183 13.8758,4.0002 -11.161,38.8182 20.8689,6.0179 12.7781,-44.4425 14.9772,4.3175 -17.5185,60.9296 m -16.5844,-131.3344 3.222,-20.1712 c 0.6999,-4.3821 0.3264,-7.7348 -1.1207,-10.058 -1.441,-2.362 -4.0664,-3.8474 -7.8762,-4.4573 -3.621,-0.5805 -6.5157,-0.018 -8.6839,1.6887 -2.2057,1.6992 -3.6254,4.5325 -4.259,8.4985 l -3.3487,20.9645 22.0665,3.5348 m 44.1631,24.6802 -83.3434,-13.3495 6.4622,-40.4553 c 1.4542,-9.1026 4.4737,-15.5341 9.0588,-19.2934 4.5851,-3.7592 10.8761,-4.999 18.8728,-3.7181 5.0923,0.8155 9.1639,2.5724 12.2147,5.2693 3.057,2.6593 4.8881,6.0907 5.4933,10.293 1.8617,-3.4196 4.2334,-5.6747 7.1152,-6.7629 2.8879,-1.1258 7.1411,-1.3549 12.76,-0.6874 l 9.8993,1.2374 c 0.075,0.012 0.1886,0.031 0.3395,0.054 4.9972,0.6851 8.1868,0.092 9.5688,-1.7791 l 2.5461,0.4077 -3.0048,18.8116 c -1.2658,0.416 -2.7746,0.6593 -4.5263,0.7274 -1.7835,0.024 -3.8694,-0.1163 -6.2578,-0.4218 l -8.8062,-1.1775 c -5.1979,-0.6393 -8.8439,-0.2162 -10.9381,1.2691 -2.0882,1.4478 -3.4972,4.4573 -4.2273,9.0274 l -2.9053,18.1876 32.4207,5.1929 -2.7422,17.1676"
         style="font-size:10px;font-style:normal;font-variant:normal;font-weight:bold;font-stretch:normal;text-indent:0;text-align:end;text-decoration:none;line-height:100%;letter-spacing:normal;word-spacing:normal;text-transform:none;direction:ltr;block-progression:tb;writing-mode:lr-tb;text-anchor:end;color:#000000;fill:#000000;fill-opacity:1;fill-rule:nonzero;stroke:none;stroke-width:1px;marker:none;visibility:visible;display:inline;overflow:visible;font-family:Swis721 BT"
         inkscape:connector-curvature="0" />
      <g
         id="g1652">
        <path
           style="fill:#db161c;fill-opacity:1;fill-rule:nonzero;stroke:#000000;stroke-width:5.87159872;stroke-linecap:butt;stroke-linejoin:miter;stroke-miterlimit:4;stroke-opacity:1;stroke-dasharray:none"
           d="m 4465.1883,919.17516 c -7.9602,0.2648 -16.087,1.25045 -20.1696,3.30507 -0.327,0.17583 -0.8281,0.5396 -1.1001,0.73446 -0.2576,0.19978 -0.5362,0.51442 -0.7335,0.73446 -0.045,0.0563 -0.3253,0.3096 -0.3667,0.36723 -0.112,0.17691 -0.2926,0.54527 -0.3667,0.73446 -0.02,0.0645 0.016,0.30136 0,0.36723 -0.012,0.0673 0.01,0.29849 0,0.36723 0,0.0702 0,0.29556 0,0.36723 0.014,0.14633 -0.033,0.5821 0,0.73447 0.375,1.36009 1.2367,3.26796 3.3005,5.14122 -10.3562,0.15182 -20.2234,5.16554 -26.0371,11.75137 -0.7228,0.84296 -1.6086,2.04871 -2.2004,2.93784 -1.221,1.8998 -2.4002,4.23074 -2.9337,6.24292 -0.7195,2.96325 -0.3735,6.31333 0.7334,9.18076 0.4753,1.14223 1.0205,2.59098 1.8336,3.6723 17.553,0 40.3393,-6.50047 40.3392,31.58181 0,25.56558 -30.4403,77.41988 -50.2406,82.25958 -1.1441,0.2495 -2.6028,0.4529 -3.6672,0.3672 -0.5278,-0.06 -1.3291,-0.2169 -1.8336,-0.3672 -1.199,-0.4049 -2.6243,-1.2412 -3.6672,-2.2034 -4.5435,-4.4647 -7.7011,-14.6366 -7.7011,-32.6835 0,-24.4879 30.4823,-89.60412 -33.7382,-89.60417 -62.9195,0 -116.9835,73.65437 -116.9836,192.79587 0,44.932 18.9883,120.4411 5.8675,244.2082 0.029,0.01 0.3349,0 0.3667,0 0.04,-0.013 0.3238,0.018 0.3667,0 0.091,-0.044 0.266,-0.3054 0.3668,-0.3672 2.8959,-1.9278 9.2667,-10.0141 10.6348,-11.3842 4.5418,-4.5481 6.2647,-10.0367 8.0679,-17.2598 1.1948,-4.7862 2.6654,-17.2729 5.5008,-21.6666 0.039,-0.053 0.3268,-0.3168 0.3667,-0.3672 0.081,-0.095 0.2837,-0.2858 0.3667,-0.3672 0.084,-0.075 0.2804,-0.3065 0.3667,-0.3673 0.044,-0.023 0.3218,-0.3479 0.3667,-0.3672 0.046,-0.015 0.3206,0.012 0.3668,0 0.047,0 0.3188,-6e-4 0.3667,0 0.048,0 0.3175,-0.01 0.3667,0 0.051,0.018 0.3157,0.3448 0.3667,0.3672 0.052,0.027 0.3144,-0.032 0.3667,0 0.106,0.073 0.2581,0.2749 0.3668,0.3673 0.055,0.051 0.3109,0.311 0.3667,0.3672 0.056,0.061 0.3097,0.3007 0.3667,0.3672 1.2708,1.5793 2.7597,4.6247 4.4006,9.1808 1.5053,-18.7086 7.4079,-32.582 12.4685,-37.8247 0.5448,-0.5419 1.3149,-1.1317 1.8336,-1.469 0.064,-0.039 0.303,-0.3316 0.3667,-0.3672 0.063,-0.032 0.3041,0.029 0.3667,0 0.062,-0.026 0.3054,-0.345 0.3668,-0.3672 0.061,-0.019 0.3067,0.015 0.3667,0 0.059,-0.012 0.3081,0.01 0.3667,0 0.058,-0.01 0.3098,0 0.3667,0 0.056,0 0.3115,-0.01 0.3667,0 0.055,0.01 0.3133,-0.012 0.3668,0 0.1549,0.058 0.5875,0.2761 0.7334,0.3672 0.047,0.038 0.3213,0.3259 0.3667,0.3672 0.044,0.045 0.3236,0.3185 0.3667,0.3673 0.041,0.056 0.3272,0.3071 0.3668,0.3672 0.1532,0.2551 0.2344,0.7852 0.3667,1.1017 0.095,0.2489 0.2844,0.8175 0.3667,1.1017 0.078,0.296 0.3027,0.7699 0.3667,1.1017 1.7651,-5.6374 3.1871,-10.2899 4.7674,-11.7514 0.05,-0.039 0.3157,0.033 0.3667,0 0.052,-0.026 0.3132,-0.3475 0.3667,-0.3672 0.055,-0.013 0.3104,0.01 0.3667,0 0.058,7e-4 0.3073,-0.01 0.3668,0 0.1835,0.045 0.5334,0.255 0.7334,0.3672 0.069,0.045 0.2961,0.3142 0.3667,0.3672 1.0918,0.915 2.6954,2.9285 4.4007,5.8757 1.6858,-8.1784 2.7009,-16.0039 4.7673,-19.8304 0.182,-0.3098 0.5356,-0.8492 0.7334,-1.1017 0.1358,-0.155 0.5896,-0.6069 0.7335,-0.7345 0.2221,-0.1703 0.4907,-0.2631 0.7334,-0.3672 0.082,-0.031 0.2823,-0.344 0.3667,-0.3672 0.043,-0.01 0.3232,0.01 0.3668,0 0.045,0 0.3212,0 0.3667,0 0.046,3e-4 0.3199,0 0.3667,0 0.048,0.01 0.3178,-0.01 0.3667,0 1.093,0.2378 2.5422,1.206 4.0339,2.5706 0,-7.0072 1.3215,-13.9639 3.6672,-16.8926 0.3285,-0.3673 0.7341,-0.8903 1.1002,-1.1017 0.041,-0.022 0.3252,0.019 0.3667,0 0.085,-0.03 0.2799,-0.3456 0.3667,-0.3672 0.044,-0.01 0.3225,0.01 0.3668,0 0.045,0 0.3215,0 0.3667,0 0.046,0 0.3202,-0.01 0.3667,0 0.047,0.01 0.319,0.355 0.3667,0.3672 0.048,0.015 0.3182,-0.017 0.3667,0 0.05,0.022 0.3169,-0.025 0.3668,0 0.05,0.027 0.316,0.3373 0.3667,0.3672 1.3404,0.9151 3.1649,2.943 4.7673,5.8757 3.2099,-9.8338 7.2719,-22.8396 11.3683,-26.0733 0.048,-0.035 0.3186,0.033 0.3668,0 0.048,-0.03 0.3187,-0.34 0.3667,-0.3673 0.048,-0.022 0.3188,0.019 0.3667,0 0.048,-0.016 0.319,0.013 0.3667,0 0.095,-0.02 0.2717,-0.3598 0.3667,-0.3672 0.047,0 0.3195,-0.01 0.3668,0 0.047,0.01 0.3196,0.3549 0.3667,0.3672 0.047,0.019 0.32,-0.022 0.3667,0 0.093,0.052 0.2739,0.3014 0.3667,0.3673 0.093,0.073 0.2747,0.2798 0.3667,0.3672 0.1836,0.1895 0.5523,0.4844 0.7335,0.7344 0.045,0.066 0.3218,0.2969 0.3667,0.3673 0.09,0.1486 0.2776,0.5697 0.3667,0.7344 0.1773,0.3459 0.559,1.0561 0.7335,1.469 2.0129,-9.1748 4.1554,-22.4334 8.4345,-26.0734 0.048,-0.038 0.3185,0.035 0.3667,0 0.049,-0.033 0.3173,-0.3367 0.3667,-0.3672 0.152,-0.077 0.576,-0.314 0.7335,-0.3673 0.054,-0.012 0.3123,0.01 0.3667,0 0.055,-0.01 0.311,0 0.3667,0 0.056,0 0.3097,0 0.3667,0 0.058,0 0.3083,-0.01 0.3668,0 0.059,0.01 0.307,-0.014 0.3667,0 0.1814,0.05 0.5457,0.2893 0.7334,0.3673 0.063,0.029 0.3027,-0.032 0.3667,0 0.065,0.036 0.3013,0.3282 0.3668,0.3672 0.2652,0.1695 0.8227,0.5099 1.1001,0.7345 0.07,0.06 0.2959,0.304 0.3667,0.3672 2.1864,-4.3788 4.0069,-9.9654 5.8676,-12.8531 0.397,-0.5773 1.0461,-1.1801 1.4668,-1.4689 0.061,-0.034 0.3054,-0.3397 0.3668,-0.3672 0.062,-0.02 0.3038,0.013 0.3667,0 0.032,-8e-4 0.3344,0 0.3667,0 0.033,0.01 0.3339,-0.01 0.3667,0 0.067,0.027 0.2987,0.3313 0.3667,0.3672 0.1383,0.09 0.591,0.2407 0.7335,0.3672 0.6513,0.6555 1.4434,1.7892 2.2003,3.3051 2.8726,-6.9579 4.0039,-18.2387 6.9677,-22.401 0.118,-0.146 0.2423,-0.6109 0.3667,-0.7345 0.042,-0.039 0.3238,0.036 0.3667,0 0.044,-0.033 0.3221,-0.3366 0.3667,-0.3672 0.092,-0.05 0.271,-0.3287 0.3667,-0.3673 0.049,-0.016 0.3171,0.013 0.3668,0 0.051,-0.01 0.3152,0.01 0.3667,0 0.052,0 0.3133,9e-4 0.3667,0 0.055,0.01 0.3104,-0.01 0.3667,0 0.057,0.013 0.3083,-0.016 0.3667,0 0.059,0.019 0.3062,0.3444 0.3668,0.3673 0.062,0.026 0.3039,-0.03 0.3667,0 0.064,0.034 0.3017,0.3298 0.3667,0.3672 1.2237,0.7624 3.0939,1.8303 4.7674,4.0395 0.3784,-2.0741 1.0325,-3.9234 1.8336,-5.5084 0.2058,-0.3891 0.5062,-1.1081 0.7334,-1.4689 5.5157,-8.4067 16.9263,-9.0785 21.2697,-7.7119 0.1707,0.061 0.5888,0.3 0.7335,0.3673 0.065,0.035 0.3083,-0.036 0.3667,0 6.4909,4.0321 15.4733,8.9867 4.0339,66.1014 -14.4945,72.3691 11.6395,82.0301 17.6026,122.6549 1.0619,0.2098 2.2844,0.5572 3.3004,0.7345 l -7.7011,40.0281 c -15.4673,-1.0022 -27.9736,-1.1512 -35.5718,1.1017 -3.7007,1.0972 -6.8108,2.9396 -9.168,5.1412 -0.1713,0.1661 -0.5687,0.5626 -0.7334,0.7345 -0.081,0.087 -0.2875,0.2784 -0.3667,0.3672 -0.079,0.089 -0.2897,0.2766 -0.3668,0.3672 -0.2997,0.3688 -0.8355,1.0774 -1.1001,1.469 -1.3423,2.0817 -2.3086,4.736 -2.5671,6.9773 -0.029,0.3187 0,0.789 0,1.1017 -0.095,6.6701 2.0876,13.1366 5.8676,17.6271 5.2022,6.18 11.3937,6.802 16.8691,9.9152 -1.0954,-5.6445 -4.1181,-10.6234 -6.601,-15.4237 -2.1625,-4.1809 -3.9512,-8.4709 -4.4006,-11.0169 -0.026,-0.1795 0.012,-0.5738 0,-0.7344 0,-0.075 0,-0.297 0,-0.3673 0,-0.2809 -0.022,-0.5288 0,-0.7344 0.01,-0.048 -0.01,-0.3223 0,-0.3673 0.013,-0.041 0.3512,-0.3281 0.3667,-0.3672 0.021,-0.038 -0.024,-0.3295 0,-0.3672 0.062,-0.079 0.2902,-0.2814 0.3667,-0.3673 0.046,-0.045 0.3137,-0.3198 0.3667,-0.3672 0.061,-0.049 0.2979,-0.3163 0.3668,-0.3672 0.85,-0.5767 2.3384,-1.2247 4.4006,-1.8362 5.0993,-1.5119 16.8457,-1.565 31.1712,-0.7344 -1.9964,10.3916 -0.3236,20.1697 2.567,29.7456 7.3805,-10.0432 9.1083,-20.0697 9.168,-30.1129 1.8947,-0.1679 4.3585,-0.4141 5.8675,-0.3672 0.1594,0.013 0.5991,-0.025 0.7334,0 0.8338,0.2001 1.6196,0.4808 2.2004,0.7345 0.64,0.3173 1.3617,0.9155 1.8336,1.4689 0.066,0.086 0.3018,0.2745 0.3667,0.3672 2.0104,2.8732 2.7889,9.4676 2.567,17.6271 1.6189,-2.5089 9.7611,-14.7916 8.0679,-22.0338 -0.018,-0.069 -0.3469,-0.2996 -0.3668,-0.3673 -0.043,-0.1331 0.051,-0.6055 0,-0.7344 -0.027,-0.063 -0.3375,-0.3051 -0.3667,-0.3673 -0.031,-0.061 0.033,-0.3074 0,-0.3672 -0.035,-0.059 -0.3296,-0.3099 -0.3667,-0.3672 -2.5085,-3.585 -6.649,-6.5789 -11.3683,-7.7119 -0.07,-0.017 -0.2951,0.014 -0.3667,0 -0.073,-0.012 -0.2929,0.01 -0.3668,0 -2.0957,-0.2037 -4.7215,0.2919 -6.9676,0.3673 l 7.3344,-38.192 c 31.0864,1.6732 35.0398,-16.7688 46.2066,-37.4575 3.763,10.0795 7.363,20.1333 13.3562,29.3882 18.4105,-5.178 30.7883,7.4968 27.7165,24.5947 l -7.3344,21.6666 c -2.567,-0.086 -14.6163,-0.9081 -16.8691,-0.3673 -4.7194,1.133 -8.8596,4.1269 -11.3684,7.7119 -0.1113,0.1719 -0.2734,0.5515 -0.3667,0.7344 -0.1166,0.2487 -0.2801,0.8353 -0.3667,1.1017 -0.02,0.068 0.018,0.2986 0,0.3673 -1.6932,7.2422 6.0824,19.5249 7.7011,22.0338 -0.2219,-8.1595 0.5567,-14.7539 2.5671,-17.6271 0.065,-0.093 0.3007,-0.2815 0.3667,-0.3672 0.1348,-0.1582 0.5897,-0.6 0.7334,-0.7345 0.075,-0.062 0.2885,-0.3101 0.3667,-0.3672 0.7396,-0.4748 1.6832,-0.8014 2.9338,-1.1017 0.042,-0.01 0.3089,0.01 0.3667,0 2.1879,-0.2105 11.0157,0.1735 13.2019,0.3672 0.059,9.9647 -4.5641,19.781 2.5671,29.7457 3.0132,-9.4332 11.1331,-19.1492 9.168,-29.3784 12.5347,-0.7267 14.9189,10.7357 13.5686,16.8926 -0.1846,0.7459 -0.4531,1.6614 -0.7335,2.2033 -2.563,4.9552 -5.5943,9.9069 -6.6009,15.791 5.5473,-3.2379 11.5842,-4.0043 16.8691,-10.2825 3.78,-4.4904 5.9626,-10.957 5.8675,-17.6271 -0.01,-0.521 -0.292,-1.3004 -0.3667,-1.8361 -0.3519,-2.1502 -1.2439,-4.6521 -2.5671,-6.6101 -0.2735,-0.3864 -0.7918,-1.1068 -1.1001,-1.469 -0.04,-0.044 -0.3221,-0.3207 -0.3667,-0.3672 -3.0663,-3.0049 -15.4838,-9.7843 -22.7367,-8.8135 l 4.7674,-17.6271 c 11.0575,3.8596 22.885,6.0375 39.239,-1.4689 13.2796,5.0653 27.1095,5.6195 41.4393,-4.0395 27.2051,13.5914 39.1812,5.4138 52.0742,-1.469 -49.6001,-59.1848 -93.4849,-132.2035 -134.2194,-210.0557 9.4502,0 21.371,1.8362 26.7706,1.8362 7.9892,0 20.8779,8.2872 25.6703,9.5479 0.079,0.018 0.2926,-0.013 0.3668,0 0.069,0.01 0.303,0 0.3667,0 0.058,0 0.314,0.01 0.3667,0 0.7269,-0.1819 1.6335,-0.057 2.2003,0 0.1809,0.032 0.5681,-0.056 0.7335,0 0.1578,0.068 0.5896,0.2758 0.7334,0.3673 0.068,0.051 0.3015,0.3102 0.3667,0.3672 0.3105,0.3125 0.8596,1.0263 1.1002,1.4689 1.9635,4.0171 1.6147,12.5945 3.6672,21.6666 1.956,-1.5131 3.7221,-2.5076 5.134,-2.9378 0.1389,-0.038 0.5992,0.029 0.7335,0 0.066,-0.012 0.3018,0.01 0.3667,0 0.1914,-0.022 0.5516,-0.3656 0.7334,-0.3673 0.1789,0 0.5636,0.3431 0.7335,0.3673 0.056,0.01 0.3119,-0.012 0.3667,0 0.053,0.016 0.3146,-0.018 0.3667,0 0.1024,0.04 0.2677,0.3191 0.3667,0.3672 0.049,0.026 0.3189,-0.028 0.3668,0 3.957,2.4881 5.152,11.5685 8.8012,19.096 0.169,-0.3581 0.5555,-0.8243 0.7335,-1.1017 0.072,-0.1047 0.2935,-0.2749 0.3667,-0.3672 0.074,-0.086 0.2917,-0.2929 0.3667,-0.3673 0.076,-0.068 0.2901,-0.3103 0.3667,-0.3672 0.039,-0.02 0.3274,-0.3499 0.3668,-0.3672 0.04,-0.012 0.3267,0.01 0.3667,0 0.04,0 0.3262,0 0.3667,0 0.041,0 0.3256,-0.01 0.3667,0 0.041,0.011 0.3253,-0.013 0.3667,0 0.042,0.018 0.325,0.3472 0.3668,0.3672 3.8532,2.0434 8.2566,13.4604 9.5347,21.6666 0.1408,-0.2652 0.5529,-0.4903 0.7334,-0.7345 0.3854,-0.4734 0.9569,-1.0934 1.4669,-1.4689 0.3514,-0.2384 1.0764,-0.5461 1.4669,-0.7345 0.498,-0.2189 1.2983,-0.6032 1.8336,-0.7344 0.9722,-0.2027 2.3189,-0.126 3.3004,0 1.5164,0.2575 3.2829,0.9827 4.4007,2.2034 1.2243,1.4818 2.2003,3.9566 2.2003,6.9773 1.7911,-2.3002 3.3765,-3.861 4.7673,-4.4067 0.3891,-0.1249 1.1118,-0.3601 1.4669,-0.3673 0.1732,0.01 0.5688,0.33 0.7335,0.3673 0.9621,0.3013 1.923,1.1174 2.567,2.2034 1.4394,2.6574 2.2507,7.0756 1.8336,11.3841 0.1192,-0.035 0.2507,0.03 0.3667,0 0.6775,-0.1523 1.6301,-0.3732 2.2003,-0.3672 0.2768,0.015 0.8478,0.3155 1.1002,0.3672 0.082,0.021 0.2877,-0.025 0.3667,0 0.153,0.057 0.5902,0.2952 0.7335,0.3672 0.2079,0.1187 0.5456,0.2178 0.7334,0.3673 0.06,0.053 0.3084,0.3109 0.3667,0.3672 0.056,0.059 0.3124,0.3047 0.3667,0.3672 0.1048,0.1312 0.2694,0.5917 0.3668,0.7345 0.047,0.074 0.3215,0.2904 0.3667,0.3672 0.087,0.1591 0.2862,0.565 0.3667,0.7345 0.1162,0.2616 0.2633,0.819 0.3667,1.1017 0.8615,2.5063 1.4051,5.8055 1.8336,9.1807 0.042,-0.049 0.3248,-0.3217 0.3667,-0.3672 0.041,-0.038 0.3257,-0.3335 0.3668,-0.3672 0.041,-0.026 0.3264,0.022 0.3667,0 0.08,-0.038 0.2875,-0.3434 0.3667,-0.3673 0.039,-0.01 0.3279,0 0.3667,0 0.038,0 0.3285,-0.01 0.3667,0 0.038,0.014 0.3291,0.3507 0.3668,0.3673 0.074,0.05 0.2933,0.3069 0.3667,0.3672 0.2919,0.2615 0.8187,0.6959 1.1001,1.1017 2.4422,3.8221 4.5875,12.399 6.9677,14.6892 0.068,0.06 0.298,0.3174 0.3667,0.3672 0.035,0.022 0.3321,-0.019 0.3667,0 0.07,0.021 0.2961,0.3582 0.3668,0.3673 0.035,0 0.331,0 0.3667,0 0.036,-0.01 -0.036,-0.3588 0,-0.3673 0.036,-0.012 0.3303,0.015 0.3667,0 0.037,-0.022 0.3299,0.026 0.3667,0 0.074,-0.06 0.2919,-0.2922 0.3667,-0.3672 1.7829,-1.7854 5.0105,-4.4278 7.7012,-5.1412 0.066,-0.016 0.3012,0.013 0.3667,0 0.1291,-0.022 0.6087,0.012 0.7334,0 0.061,0 0.3068,7e-4 0.3667,0 0.057,0 0.311,-0.01 0.3668,0 0.054,0.011 0.314,-0.014 0.3667,0 0.102,0.034 0.2718,0.3202 0.3667,0.3672 0.046,0.027 0.3231,-0.03 0.3667,0 0.083,0.068 0.2919,0.2851 0.3667,0.3672 0.1058,0.1343 0.2821,0.5651 0.3668,0.7345 4.0978,8.2071 8.3133,21.1815 11.0015,31.949 4.9127,-8.6354 8.0915,-15.6365 11.0016,-17.9943 0.171,-0.1223 0.5625,-0.2785 0.7335,-0.3672 0.086,-0.036 0.2808,-0.3403 0.3667,-0.3672 0.043,-0.011 0.3235,0.01 0.3667,0 0.043,0 0.3233,0 0.3667,0 0.044,2e-4 0.323,0 0.3668,0 0.044,0.01 0.3224,-0.01 0.3667,0 0.045,0.015 0.3219,0.3501 0.3667,0.3672 0.045,0.022 0.3211,-0.025 0.3667,0 0.046,0.027 0.3206,0.3375 0.3667,0.3672 1.402,1.0481 2.9365,3.3105 4.7674,6.9774 2.0838,4.1734 9.4414,22.9368 17.2358,29.0112 0.077,0.057 0.2901,0.3126 0.3667,0.3672 0.1536,0.1042 0.5794,0.2736 0.7335,0.3673 0.1543,0.088 0.5787,0.2901 0.7334,0.3672 0.077,0.036 0.2893,0.3344 0.3667,0.3672 0.1551,0.06 0.5782,-0.047 0.7335,0 0.1552,0.041 0.578,0.3387 0.7334,0.3673 0.1554,0.022 0.5781,-0.01 0.7334,0 0.078,9e-4 0.2891,0 0.3668,0 0.1552,-0.012 0.5783,0.027 0.7334,0 0.078,-0.017 0.2893,-0.3466 0.3667,-0.3673 3.1814,-0.849 6.3535,-1.3543 9.5347,-2.2034 -34.6229,-89.9156 -42.3592,-96.1143 -32.638,-194.632 5.2278,-52.9816 -38.5462,-193.89766 -109.2825,-193.89762 -20.2774,0 -61.5561,-1.62457 -46.9401,87.03362 7.5393,45.732 -26.7268,61.8317 -48.407,16.1581 -13.1402,-27.6823 23.556,-57.80526 -15.0355,-93.64373 l 23.8368,-10.28245 c -17.7531,-19.62067 -32.9214,-33.57888 -63.0758,-33.41796 -4.602,0.0246 -10.5322,-0.1986 -16.5024,0 z m 39.9724,421.21314 c -4.6148,-42.3384 -13.1595,-92.2787 -55.6074,-101.7168"
           id="path2911"
           sodipodi:nodetypes="cssssssssscsssscsssssssscsssssssssssssssssscsssssssssssssssssssssssscssssssssscssssssssssscsssssssssssssscsssssssssssssssssssssscssssssssssssscsssssscccssssssssscsssssssssssscccssssscsssssssssccccccssssscsssssscccsscssssssccccccsssssssssscssssssssscsssssssssscsssssscsssssssssssssssssssssssssssssssssssssssssssssscsssssssssssssssssssssscssssccsccc"
           inkscape:connector-curvature="0" />
        <path
           sodipodi:type="arc"
           style="color:#000000;fill:#000000;fill-opacity:1;fill-rule:evenodd;stroke:#000000;stroke-width:0.5;stroke-linecap:round;stroke-linejoin:miter;stroke-miterlimit:4;stroke-opacity:1;stroke-dasharray:none;stroke-dashoffset:0;marker:none;visibility:visible;display:inline;overflow:visible"
           id="path2927"
           sodipodi:cx="381.48416"
           sodipodi:cy="75.58741"
           sodipodi:rx="0.50165284"
           sodipodi:ry="0.50165284"
           d="m 381.98581,75.58741 a 0.50165284,0.50165284 0 1 1 -1.0033,0 0.50165284,0.50165284 0 1 1 1.0033,0 z"
           transform="matrix(11.73503,0,0,11.75137,0.742827,62.42684)" />
        <path
           style="color:#000000;fill:none;stroke:#000000;stroke-width:3.91048479;stroke-linecap:butt;stroke-linejoin:miter;stroke-miterlimit:4;stroke-opacity:1;stroke-dasharray:none;stroke-dashoffset:0;marker:none;visibility:visible;display:inline;overflow:visible"
           d="m 4477.2459,1001.0342 8.5267,23.9079 13.6427,-23.9079"
           id="path2931"
           inkscape:connector-curvature="0" />
        <path
           id="path2933"
           d="m 4456.1236,1039.492 8.5267,23.9079 13.6426,-23.9079"
           style="color:#000000;fill:none;stroke:#000000;stroke-width:3.91048479;stroke-linecap:butt;stroke-linejoin:miter;stroke-miterlimit:4;stroke-opacity:1;stroke-dasharray:none;stroke-dashoffset:0;marker:none;visibility:visible;display:inline;overflow:visible"
           inkscape:connector-curvature="0" />
        <path
           style="color:#000000;fill:none;stroke:#000000;stroke-width:3.91048479;stroke-linecap:butt;stroke-linejoin:miter;stroke-miterlimit:4;stroke-opacity:1;stroke-dasharray:none;stroke-dashoffset:0;marker:none;visibility:visible;display:inline;overflow:visible"
           d="m 4495.488,1034.6848 8.5267,23.9079 13.6427,-23.9079"
           id="path2935"
           inkscape:connector-curvature="0" />
        <path
           id="path2937"
           d="m 4483.0067,1070.2582 8.5266,23.908 13.6427,-23.908"
           style="color:#000000;fill:none;stroke:#000000;stroke-width:3.91048479;stroke-linecap:butt;stroke-linejoin:miter;stroke-miterlimit:4;stroke-opacity:1;stroke-dasharray:none;stroke-dashoffset:0;marker:none;visibility:visible;display:inline;overflow:visible"
           inkscape:connector-curvature="0" />
        <path
           style="color:#000000;fill:none;stroke:#000000;stroke-width:3.91048479;stroke-linecap:butt;stroke-linejoin:miter;stroke-miterlimit:4;stroke-opacity:1;stroke-dasharray:none;stroke-dashoffset:0;marker:none;visibility:visible;display:inline;overflow:visible"
           d="m 4435.9614,1077.9498 8.5267,23.9079 13.6426,-23.9079"
           id="path2939"
           inkscape:connector-curvature="0" />
        <path
           id="path2941"
           d="m 4459.9641,1095.2558 8.5267,23.9079 13.6427,-23.9079"
           style="color:#000000;fill:none;stroke:#000000;stroke-width:3.91048479;stroke-linecap:butt;stroke-linejoin:miter;stroke-miterlimit:4;stroke-opacity:1;stroke-dasharray:none;stroke-dashoffset:0;marker:none;visibility:visible;display:inline;overflow:visible"
           inkscape:connector-curvature="0" />
        <path
           style="color:#000000;fill:none;stroke:#000000;stroke-width:3.91048479;stroke-linecap:butt;stroke-linejoin:miter;stroke-miterlimit:4;stroke-opacity:1;stroke-dasharray:none;stroke-dashoffset:0;marker:none;visibility:visible;display:inline;overflow:visible"
           d="m 4486.8472,1114.4847 8.5267,23.9079 13.6426,-23.9079"
           id="path2943"
           inkscape:connector-curvature="0" />
        <path
           style="color:#000000;fill:none;stroke:#000000;stroke-width:3.91048479;stroke-linecap:butt;stroke-linejoin:miter;stroke-miterlimit:4;stroke-opacity:1;stroke-dasharray:none;stroke-dashoffset:0;marker:none;visibility:visible;display:inline;overflow:visible"
           d="m 4511.8099,1087.5642 8.5267,23.908 13.6427,-23.908"
           id="path2946"
           inkscape:connector-curvature="0" />
        <path
           style="color:#000000;fill:none;stroke:#000000;stroke-width:3.91048479;stroke-linecap:butt;stroke-linejoin:miter;stroke-miterlimit:4;stroke-opacity:1;stroke-dasharray:none;stroke-dashoffset:0;marker:none;visibility:visible;display:inline;overflow:visible"
           d="m 4429.2406,1114.4847 8.5267,23.9079 13.6427,-23.9079"
           id="path2948"
           inkscape:connector-curvature="0" />
        <path
           id="path2950"
           d="m 4458.0439,1132.7521 8.5267,23.908 13.6426,-23.908"
           style="color:#000000;fill:none;stroke:#000000;stroke-width:3.91048479;stroke-linecap:butt;stroke-linejoin:miter;stroke-miterlimit:4;stroke-opacity:1;stroke-dasharray:none;stroke-dashoffset:0;marker:none;visibility:visible;display:inline;overflow:visible"
           inkscape:connector-curvature="0" />
        <path
           style="color:#000000;fill:none;stroke:#000000;stroke-width:3.91048479;stroke-linecap:butt;stroke-linejoin:miter;stroke-miterlimit:4;stroke-opacity:1;stroke-dasharray:none;stroke-dashoffset:0;marker:none;visibility:visible;display:inline;overflow:visible"
           d="m 4519.4907,1128.9064 8.5267,23.9079 13.6427,-23.9079"
           id="path2952"
           inkscape:connector-curvature="0" />
        <path
           id="path2954"
           d="m 4490.6875,1151.0196 8.5266,23.9079 13.6427,-23.9079"
           style="color:#000000;fill:none;stroke:#000000;stroke-width:3.91048479;stroke-linecap:butt;stroke-linejoin:miter;stroke-miterlimit:4;stroke-opacity:1;stroke-dasharray:none;stroke-dashoffset:0;marker:none;visibility:visible;display:inline;overflow:visible"
           inkscape:connector-curvature="0" />
        <path
           style="color:#000000;fill:none;stroke:#000000;stroke-width:3.91048479;stroke-linecap:butt;stroke-linejoin:miter;stroke-miterlimit:4;stroke-opacity:1;stroke-dasharray:none;stroke-dashoffset:0;marker:none;visibility:visible;display:inline;overflow:visible"
           d="m 4516.7078,1175.215 8.5267,23.9079 13.6426,-23.9079"
           id="path2956"
           inkscape:connector-curvature="0" />
        <path
           id="path2958"
           d="m 4486.9703,1186.3821 8.5267,23.9079 13.6426,-23.9079"
           style="color:#000000;fill:none;stroke:#000000;stroke-width:3.91048479;stroke-linecap:butt;stroke-linejoin:miter;stroke-miterlimit:4;stroke-opacity:1;stroke-dasharray:none;stroke-dashoffset:0;marker:none;visibility:visible;display:inline;overflow:visible"
           inkscape:connector-curvature="0" />
        <path
           style="color:#000000;fill:none;stroke:#000000;stroke-width:3.91048479;stroke-linecap:butt;stroke-linejoin:miter;stroke-miterlimit:4;stroke-opacity:1;stroke-dasharray:none;stroke-dashoffset:0;marker:none;visibility:visible;display:inline;overflow:visible"
           d="m 4503.2923,1220.261 15.6061,20.0067 5.4372,-26.9923"
           id="path2960"
           inkscape:connector-curvature="0" />
        <path
           id="path2962"
           d="m 4536.747,1218.3998 15.6061,20.0067 5.4371,-26.9923"
           style="color:#000000;fill:none;stroke:#000000;stroke-width:3.91048479;stroke-linecap:butt;stroke-linejoin:miter;stroke-miterlimit:4;stroke-opacity:1;stroke-dasharray:none;stroke-dashoffset:0;marker:none;visibility:visible;display:inline;overflow:visible"
           inkscape:connector-curvature="0" />
        <path
           style="color:#000000;fill:none;stroke:#000000;stroke-width:3.91048479;stroke-linecap:butt;stroke-linejoin:miter;stroke-miterlimit:4;stroke-opacity:1;stroke-dasharray:none;stroke-dashoffset:0;marker:none;visibility:visible;display:inline;overflow:visible"
           d="m 4507.0095,1257.4846 15.606,20.0068 5.4372,-26.9924"
           id="path2964"
           inkscape:connector-curvature="0" />
        <path
           id="path2966"
           d="m 4538.6056,1254.6929 15.606,20.0067 5.4372,-26.9923"
           style="color:#000000;fill:none;stroke:#000000;stroke-width:3.91048479;stroke-linecap:butt;stroke-linejoin:miter;stroke-miterlimit:4;stroke-opacity:1;stroke-dasharray:none;stroke-dashoffset:0;marker:none;visibility:visible;display:inline;overflow:visible"
           inkscape:connector-curvature="0" />
        <path
           id="path2970"
           d="m 4513.5146,1297.5001 15.606,20.0067 5.4372,-26.9923"
           style="color:#000000;fill:none;stroke:#000000;stroke-width:3.91048479;stroke-linecap:butt;stroke-linejoin:miter;stroke-miterlimit:4;stroke-opacity:1;stroke-dasharray:none;stroke-dashoffset:0;marker:none;visibility:visible;display:inline;overflow:visible"
           inkscape:connector-curvature="0" />
        <path
           style="color:#000000;fill:none;stroke:#000000;stroke-width:3.91048551;stroke-linecap:butt;stroke-linejoin:miter;stroke-miterlimit:4;stroke-opacity:1;stroke-dasharray:none;stroke-dashoffset:0;marker:none;visibility:visible;display:inline;overflow:visible"
           d="m 4546.9552,1298.724 14.9369,24.826 5.204,-33.4943"
           id="path2972"
           inkscape:connector-curvature="0" />
        <path
           style="color:#000000;fill:none;stroke:#000000;stroke-width:3.91048479;stroke-linecap:butt;stroke-linejoin:miter;stroke-miterlimit:4;stroke-opacity:1;stroke-dasharray:none;stroke-dashoffset:0;marker:none;visibility:visible;display:inline;overflow:visible"
           d="m 4524.6661,1339.3767 15.6061,20.0067 5.4372,-26.9923"
           id="path2976"
           inkscape:connector-curvature="0" />
        <path
           style="fill:none;stroke:#000000;stroke-width:5.87159872;stroke-linecap:round;stroke-linejoin:miter;stroke-miterlimit:4;stroke-opacity:1;stroke-dasharray:none"
           d="m 4610.9848,1281.2513 -31.5961,-18.6118 -0.8445,99.4071 -19.5152,-21.4036 -12.8406,30.4547 -30.6148,-9.1071"
           id="path2978"
           sodipodi:nodetypes="cccccc"
           inkscape:connector-curvature="0" />
        <path
           style="color:#000000;fill:none;stroke:#000000;stroke-width:2.93579936;stroke-linecap:butt;stroke-linejoin:miter;stroke-miterlimit:4;stroke-opacity:1;stroke-dasharray:none;stroke-dashoffset:0;marker:none;visibility:visible;display:inline;overflow:visible"
           d="m 4579.0466,1306.4405 57.0581,85.7061"
           id="path2980"
           sodipodi:nodetypes="cc"
           inkscape:connector-curvature="0" />
        <path
           style="color:#000000;fill:none;stroke:#000000;stroke-width:2.93579936;stroke-linecap:butt;stroke-linejoin:miter;stroke-miterlimit:4;stroke-opacity:1;stroke-dasharray:none;stroke-dashoffset:0;marker:none;visibility:visible;display:inline;overflow:visible"
           d="m 4576.991,1357.4747 16.8896,37.209"
           id="path2982"
           sodipodi:nodetypes="cc"
           inkscape:connector-curvature="0" />
        <path
           style="color:#000000;fill:none;stroke:#000000;stroke-width:3.9104836;stroke-linecap:butt;stroke-linejoin:miter;stroke-miterlimit:4;stroke-opacity:1;stroke-dasharray:none;stroke-dashoffset:0;marker:none;visibility:visible;display:inline;overflow:visible"
           d="m 4461.2965,1207.7262 9.0774,17.2598 0.5229,-27.5151"
           id="path2984"
           inkscape:connector-curvature="0" />
        <path
           id="path2986"
           d="m 4477.997,1229.0954 9.0774,17.2598 0.5229,-27.5151"
           style="color:#000000;fill:none;stroke:#000000;stroke-width:3.9104836;stroke-linecap:butt;stroke-linejoin:miter;stroke-miterlimit:4;stroke-opacity:1;stroke-dasharray:none;stroke-dashoffset:0;marker:none;visibility:visible;display:inline;overflow:visible"
           inkscape:connector-curvature="0" />
        <path
           id="path2988"
           d="m 4445.9411,1166.514 8.5267,23.908 13.6426,-23.908"
           style="color:#000000;fill:none;stroke:#000000;stroke-width:3.91048479;stroke-linecap:butt;stroke-linejoin:miter;stroke-miterlimit:4;stroke-opacity:1;stroke-dasharray:none;stroke-dashoffset:0;marker:none;visibility:visible;display:inline;overflow:visible"
           inkscape:connector-curvature="0" />
        <path
           style="color:#000000;fill:none;stroke:#000000;stroke-width:3.91048479;stroke-linecap:butt;stroke-linejoin:miter;stroke-miterlimit:4;stroke-opacity:1;stroke-dasharray:none;stroke-dashoffset:0;marker:none;visibility:visible;display:inline;overflow:visible"
           d="m 4439.4465,1260.3527 8.5266,23.9079 13.6427,-23.9079"
           id="path2990"
           inkscape:connector-curvature="0" />
        <path
           id="path2992"
           d="m 4461.7138,1278.0055 8.5267,23.9079 13.6426,-23.9079"
           style="color:#000000;fill:none;stroke:#000000;stroke-width:3.91048479;stroke-linecap:butt;stroke-linejoin:miter;stroke-miterlimit:4;stroke-opacity:1;stroke-dasharray:none;stroke-dashoffset:0;marker:none;visibility:visible;display:inline;overflow:visible"
           inkscape:connector-curvature="0" />
        <path
           style="color:#000000;fill:none;stroke:#000000;stroke-width:3.91048479;stroke-linecap:butt;stroke-linejoin:miter;stroke-miterlimit:4;stroke-opacity:1;stroke-dasharray:none;stroke-dashoffset:0;marker:none;visibility:visible;display:inline;overflow:visible"
           d="m 4440.3743,1297.5165 8.5267,23.9079 13.6427,-23.9079"
           id="path2994"
           inkscape:connector-curvature="0" />
        <path
           id="path2996"
           d="m 4470.9919,1315.1693 8.5266,23.9079 13.6427,-23.9079"
           style="color:#000000;fill:none;stroke:#000000;stroke-width:3.91048479;stroke-linecap:butt;stroke-linejoin:miter;stroke-miterlimit:4;stroke-opacity:1;stroke-dasharray:none;stroke-dashoffset:0;marker:none;visibility:visible;display:inline;overflow:visible"
           inkscape:connector-curvature="0" />
        <path
           style="color:#000000;fill:none;stroke:#000000;stroke-width:3.91048479;stroke-linecap:butt;stroke-linejoin:miter;stroke-miterlimit:4;stroke-opacity:1;stroke-dasharray:none;stroke-dashoffset:0;marker:none;visibility:visible;display:inline;overflow:visible"
           d="m 4449.6524,1332.8221 8.5267,23.9079 13.6427,-23.9079"
           id="path2998"
           inkscape:connector-curvature="0" />
        <path
           style="color:#000000;fill:none;stroke:#000000;stroke-width:5.87159872;stroke-linecap:butt;stroke-linejoin:miter;stroke-miterlimit:4;stroke-opacity:1;stroke-dasharray:none;stroke-dashoffset:0;marker:none;visibility:visible;display:inline;overflow:visible"
           d="m 4563.4756,1083.6399 c -19.1385,2.7725 -33.1035,60.7931 -9.3786,96.2655"
           id="path3000"
           sodipodi:nodetypes="cc"
           inkscape:connector-curvature="0" />
        <path
           sodipodi:nodetypes="cc"
           id="path3002"
           d="m 4418.106,1073.4655 c -16.0124,11.3816 -27.6328,78.7939 7.034,115.8316"
           style="color:#000000;fill:none;stroke:#000000;stroke-width:5.87159872;stroke-linecap:butt;stroke-linejoin:miter;stroke-miterlimit:4;stroke-opacity:1;stroke-dasharray:none;stroke-dashoffset:0;marker:none;visibility:visible;display:inline;overflow:visible"
           inkscape:connector-curvature="0" />
        <path
           style="color:#000000;fill:none;stroke:#000000;stroke-width:3.91048479;stroke-linecap:butt;stroke-linejoin:miter;stroke-miterlimit:4;stroke-opacity:1;stroke-dasharray:none;stroke-dashoffset:0;marker:none;visibility:visible;display:inline;overflow:visible"
           d="m 4475.1597,977.2001 10.1603,8.60911 4.6893,-7.82646 8.5971,6.26117 3.9077,-13.30499 9.3788,9.39176 7.034,-9.39176"
           id="path3004"
           inkscape:connector-curvature="0" />
        <path
           style="color:#000000;fill:none;stroke:#000000;stroke-width:3.91048479;stroke-linecap:round;stroke-linejoin:miter;stroke-miterlimit:4;stroke-opacity:1;stroke-dasharray:none;stroke-dashoffset:0;marker:none;visibility:visible;display:inline;overflow:visible"
           d="m 4449.0112,933.83473 c 7.7349,8.14178 17.2958,13.54091 6.1878,44.22008"
           id="path3006"
           sodipodi:nodetypes="cc"
           inkscape:connector-curvature="0" />
        <path
           style="color:#000000;fill:none;stroke:#000000;stroke-width:3.91048479;stroke-linecap:butt;stroke-linejoin:miter;stroke-miterlimit:4;stroke-opacity:1;stroke-dasharray:none;stroke-dashoffset:0;marker:none;visibility:visible;display:inline;overflow:visible"
           d="m 4417.3244,963.11247 c 11.6498,-5.55575 20.0827,-13.45445 40.641,-12.52233"
           id="path3008"
           sodipodi:nodetypes="cc"
           inkscape:connector-curvature="0" />
        <g
           id="g3058"
           transform="matrix(11.73503,0,0,11.75137,0.742827,62.42684)">
          <path
             id="path3010"
             d="m 372.67706,82.463356 c 0,-0.376343 0,-1.518509 0,-2.252184 0,-0.997372 -1.04591,-1.038933 -1.77804,-1.185359 -1.20451,-0.240902 -4.12229,-0.550727 -6.51948,2.844863 -0.56733,0.80361 -0.99729,2.58726 -1.42243,3.437543 -0.13458,0.269146 -0.23707,0.553167 -0.35561,0.829751 -0.13883,0.323947 -0.16073,0.40182 -0.23707,0.59268"
             style="color:#000000;fill:none;stroke:#000000;stroke-width:0.333;stroke-linecap:butt;stroke-linejoin:miter;stroke-miterlimit:4;stroke-opacity:1;stroke-dasharray:none;stroke-dashoffset:0;marker:none;visibility:visible;display:inline;overflow:visible"
             sodipodi:nodetypes="csssssc"
             inkscape:connector-curvature="0" />
          <path
             id="path3012"
             d="m 366.15758,81.515068 c 0,0 0,0 0,0 -0.0821,1.569186 -0.401,2.81711 -0.94829,3.911687"
             style="color:#000000;fill:none;stroke:#000000;stroke-width:0.333;stroke-linecap:butt;stroke-linejoin:miter;stroke-miterlimit:4;stroke-opacity:1;stroke-dasharray:none;stroke-dashoffset:0;marker:none;visibility:visible;display:inline;overflow:visible"
             inkscape:connector-curvature="0" />
          <path
             id="path3014"
             d="m 367.34294,80.922388 c -0.0851,1.132894 0.15386,2.347941 -0.11854,3.437543"
             style="color:#000000;fill:none;stroke:#000000;stroke-width:0.333;stroke-linecap:butt;stroke-linejoin:miter;stroke-miterlimit:4;stroke-opacity:1;stroke-dasharray:none;stroke-dashoffset:0;marker:none;visibility:visible;display:inline;overflow:visible"
             inkscape:connector-curvature="0" />
          <path
             id="path3016"
             d="m 369.23951,80.685316 c -0.19756,0.39512 -0.39512,0.79024 -0.59268,1.18536 -0.23208,0.464164 -0.50491,1.30845 -0.59268,1.659503"
             style="color:#000000;fill:none;stroke:#000000;stroke-width:0.333;stroke-linecap:butt;stroke-linejoin:miter;stroke-miterlimit:4;stroke-opacity:1;stroke-dasharray:none;stroke-dashoffset:0;marker:none;visibility:visible;display:inline;overflow:visible"
             inkscape:connector-curvature="0" />
          <path
             id="path3018"
             d="m 370.30634,80.803852 c -0.51145,1.022902 -0.82976,2.296312 -0.82976,3.437543"
             style="color:#000000;fill:none;stroke:#000000;stroke-width:0.333;stroke-linecap:butt;stroke-linejoin:miter;stroke-miterlimit:4;stroke-opacity:1;stroke-dasharray:none;stroke-dashoffset:0;marker:none;visibility:visible;display:inline;overflow:visible"
             inkscape:connector-curvature="0" />
          <path
             id="path3020"
             d="m 364.14247,86.13797 c -0.38088,0.76176 -0.23708,2.660708 -0.23708,3.556079"
             style="color:#000000;fill:none;stroke:#000000;stroke-width:0.333;stroke-linecap:butt;stroke-linejoin:miter;stroke-miterlimit:4;stroke-opacity:1;stroke-dasharray:none;stroke-dashoffset:0;marker:none;visibility:visible;display:inline;overflow:visible"
             inkscape:connector-curvature="0" />
          <path
             id="path3022"
             d="m 365.80197,86.375042 c 0,0.158048 0,0.158048 0,0 0,-1.341663 -0.4772,2.655449 -0.94829,3.911687"
             style="color:#000000;fill:none;stroke:#000000;stroke-width:0.333;stroke-linecap:butt;stroke-linejoin:miter;stroke-miterlimit:4;stroke-opacity:1;stroke-dasharray:none;stroke-dashoffset:0;marker:none;visibility:visible;display:inline;overflow:visible"
             inkscape:connector-curvature="0" />
          <path
             id="path3024"
             d="m 366.98733,86.73065 c 0,-2.303275 -0.075,2.70249 -0.23707,3.674615 -0.0195,0.116923 0,0.237072 0,0.355608"
             style="color:#000000;fill:none;stroke:#000000;stroke-width:0.333;stroke-linecap:butt;stroke-linejoin:miter;stroke-miterlimit:4;stroke-opacity:1;stroke-dasharray:none;stroke-dashoffset:0;marker:none;visibility:visible;display:inline;overflow:visible"
             inkscape:connector-curvature="0" />
          <path
             id="path3026"
             d="m 368.64683,85.071147 c -0.31388,1.883325 -0.23707,4.226165 -0.23707,6.16387"
             style="color:#000000;fill:none;stroke:#000000;stroke-width:0.333;stroke-linecap:butt;stroke-linejoin:miter;stroke-miterlimit:4;stroke-opacity:1;stroke-dasharray:none;stroke-dashoffset:0;marker:none;visibility:visible;display:inline;overflow:visible"
             inkscape:connector-curvature="0" />
          <path
             id="path3028"
             d="m 370.1878,86.13797 c -0.2504,1.502388 -0.82975,3.993457 -0.82975,5.926798"
             style="color:#000000;fill:none;stroke:#000000;stroke-width:0.333;stroke-linecap:butt;stroke-linejoin:miter;stroke-miterlimit:4;stroke-opacity:1;stroke-dasharray:none;stroke-dashoffset:0;marker:none;visibility:visible;display:inline;overflow:visible"
             inkscape:connector-curvature="0" />
          <path
             id="path3030"
             d="m 372.20291,85.900898 c -0.36036,2.162162 -0.0765,3.806537 -0.82975,5.689727"
             style="color:#000000;fill:none;stroke:#000000;stroke-width:0.333;stroke-linecap:butt;stroke-linejoin:miter;stroke-miterlimit:4;stroke-opacity:1;stroke-dasharray:none;stroke-dashoffset:0;marker:none;visibility:visible;display:inline;overflow:visible"
             inkscape:connector-curvature="0" />
          <path
             id="path3032"
             d="m 362.95711,91.353553 c -0.19669,1.180129 -0.0838,2.113373 -0.35561,3.200471"
             style="color:#000000;fill:none;stroke:#000000;stroke-width:0.333;stroke-linecap:butt;stroke-linejoin:miter;stroke-miterlimit:4;stroke-opacity:1;stroke-dasharray:none;stroke-dashoffset:0;marker:none;visibility:visible;display:inline;overflow:visible"
             inkscape:connector-curvature="0" />
          <path
             id="path3034"
             d="m 364.97222,91.590625 c -0.18575,1.114519 -0.71122,1.909453 -0.71122,3.081934 0,2.577119 0.0133,-0.02661 -0.23707,0.474144"
             style="color:#000000;fill:none;stroke:#000000;stroke-width:0.333;stroke-linecap:butt;stroke-linejoin:miter;stroke-miterlimit:4;stroke-opacity:1;stroke-dasharray:none;stroke-dashoffset:0;marker:none;visibility:visible;display:inline;overflow:visible"
             inkscape:connector-curvature="0" />
          <path
             id="path3036"
             d="m 366.39465,92.183304 c 0,1.174682 -0.47414,2.418508 -0.47414,3.674615"
             style="color:#000000;fill:none;stroke:#000000;stroke-width:0.333;stroke-linecap:butt;stroke-linejoin:miter;stroke-miterlimit:4;stroke-opacity:1;stroke-dasharray:none;stroke-dashoffset:0;marker:none;visibility:visible;display:inline;overflow:visible"
             inkscape:connector-curvature="0" />
          <path
             id="path3038"
             d="m 367.58001,91.946232 c 0,0.859653 -0.026,2.356238 -0.35561,3.674615 -0.0192,0.07667 0,0.158048 0,0.237072"
             style="color:#000000;fill:none;stroke:#000000;stroke-width:0.333;stroke-linecap:butt;stroke-linejoin:miter;stroke-miterlimit:4;stroke-opacity:1;stroke-dasharray:none;stroke-dashoffset:0;marker:none;visibility:visible;display:inline;overflow:visible"
             inkscape:connector-curvature="0" />
          <path
             id="path3040"
             d="m 369.23951,92.420376 c -0.17877,0.715109 -0.23707,2.44219 -0.23707,3.556079 0,0.07902 0,0.158048 0,0.237072"
             style="color:#000000;fill:none;stroke:#000000;stroke-width:0.333;stroke-linecap:butt;stroke-linejoin:miter;stroke-miterlimit:4;stroke-opacity:1;stroke-dasharray:none;stroke-dashoffset:0;marker:none;visibility:visible;display:inline;overflow:visible"
             inkscape:connector-curvature="0" />
          <path
             id="path3042"
             d="m 371.25462,92.30184 c 0,0.844263 -0.70783,3.310556 -0.94828,3.911687"
             style="color:#000000;fill:none;stroke:#000000;stroke-width:0.333;stroke-linecap:butt;stroke-linejoin:miter;stroke-miterlimit:4;stroke-opacity:1;stroke-dasharray:none;stroke-dashoffset:0;marker:none;visibility:visible;display:inline;overflow:visible"
             inkscape:connector-curvature="0" />
          <path
             id="path3044"
             d="m 373.98095,88.271618 c 0,1.176622 -0.9875,3.158539 -1.18536,4.741438 -0.12713,1.017067 -0.073,2.042363 0.47415,2.726327"
             style="color:#000000;fill:none;stroke:#000000;stroke-width:0.333;stroke-linecap:butt;stroke-linejoin:miter;stroke-miterlimit:4;stroke-opacity:1;stroke-dasharray:none;stroke-dashoffset:0;marker:none;visibility:visible;display:inline;overflow:visible"
             inkscape:connector-curvature="0" />
          <path
             id="path3046"
             d="m 363.66832,96.806207 c -0.17119,1.369576 0,2.890848 0,4.267293 0,1.22487 0,2.44974 0,3.67462 0,1.10633 0,2.21267 0,3.319 0,0.15805 0,0.3161 0,0.47415"
             style="color:#000000;fill:none;stroke:#000000;stroke-width:0.333;stroke-linecap:butt;stroke-linejoin:miter;stroke-miterlimit:4;stroke-opacity:1;stroke-dasharray:none;stroke-dashoffset:0;marker:none;visibility:visible;display:inline;overflow:visible"
             inkscape:connector-curvature="0" />
          <path
             id="path3048"
             d="m 364.97222,96.450599 c 0,1.560062 -0.0161,3.103766 0.23707,4.622901 0.1973,1.1838 0.11854,2.58598 0.11854,3.79315 0,0.79024 0,1.58048 0,2.37072"
             style="color:#000000;fill:none;stroke:#000000;stroke-width:0.333;stroke-linecap:butt;stroke-linejoin:miter;stroke-miterlimit:4;stroke-opacity:1;stroke-dasharray:none;stroke-dashoffset:0;marker:none;visibility:visible;display:inline;overflow:visible"
             inkscape:connector-curvature="0" />
          <path
             id="path3050"
             d="m 366.63172,96.924743 c 0,1.710128 0.35561,3.257147 0.35561,4.978507 0,1.10548 -0.0561,2.24584 -0.47414,3.08194 -0.15803,0.31605 -0.12956,0.31153 0,0.82975"
             style="color:#000000;fill:none;stroke:#000000;stroke-width:0.333;stroke-linecap:butt;stroke-linejoin:miter;stroke-miterlimit:4;stroke-opacity:1;stroke-dasharray:none;stroke-dashoffset:0;marker:none;visibility:visible;display:inline;overflow:visible"
             inkscape:connector-curvature="0" />
          <path
             id="path3052"
             d="m 368.5283,96.806207 c -0.3303,0.66059 0.11853,2.383422 0.11853,3.200473 0,0.87322 0.0543,2.03501 -0.11853,2.72632 -0.14708,0.5883 -0.0996,0.75419 -0.23707,1.3039"
             style="color:#000000;fill:none;stroke:#000000;stroke-width:0.333;stroke-linecap:butt;stroke-linejoin:miter;stroke-miterlimit:4;stroke-opacity:1;stroke-dasharray:none;stroke-dashoffset:0;marker:none;visibility:visible;display:inline;overflow:visible"
             inkscape:connector-curvature="0" />
          <path
             sodipodi:nodetypes="cssc"
             id="path3054"
             d="m 370.54341,96.806207 c -0.0555,0.222052 0.10868,1.395821 0.10868,2.337669 0,0.79024 -0.28982,1.616704 -0.28982,2.406944 0,0.079 0.0231,0.47097 -0.0559,0.47097"
             style="color:#000000;fill:none;stroke:#000000;stroke-width:0.333;stroke-linecap:butt;stroke-linejoin:miter;stroke-miterlimit:4;stroke-opacity:1;stroke-dasharray:none;stroke-dashoffset:0;marker:none;visibility:visible;display:inline;overflow:visible"
             inkscape:connector-curvature="0" />
          <path
             id="path3056"
             d="m 371.69812,96.777288 c 0.0604,0.07246 0.12076,0.144912 0.18114,0.217369 0.20931,0.251172 0.21737,0.600926 0.21737,0.905703 0,0.461476 0.0432,0.920544 -0.21737,1.267986"
             style="color:#000000;fill:none;stroke:#000000;stroke-width:0.333;stroke-linecap:butt;stroke-linejoin:miter;stroke-miterlimit:4;stroke-opacity:1;stroke-dasharray:none;stroke-dashoffset:0;marker:none;visibility:visible;display:inline;overflow:visible"
             inkscape:connector-curvature="0" />
        </g>
        <path
           id="path3086"
           d="m 4598.3638,1019.5986 c 0,-4.4226 0,-17.8446 0,-26.46628 0,-11.72048 12.2737,-12.20888 20.8653,-13.92959 14.135,-2.83093 28.4244,3.08825 38.9487,8.35776 13.6203,6.81962 26.9977,16.61361 37.5576,25.07331 9.0176,7.2241 11.7032,30.4038 16.6923,40.3958 1.5793,3.1628 2.782,6.5005 4.1731,9.7507 1.6291,3.8068 1.8861,4.722 2.782,6.9648"
           style="color:#000000;fill:none;stroke:#000000;stroke-width:3.91048479;stroke-linecap:butt;stroke-linejoin:miter;stroke-miterlimit:4;stroke-opacity:1;stroke-dasharray:none;stroke-dashoffset:0;marker:none;visibility:visible;display:inline;overflow:visible"
           inkscape:connector-curvature="0" />
        <path
           id="path3088"
           d="m 4674.8701,1008.4549 c 0,0 0,0 0,0 0.9639,18.4401 4.7057,33.1049 11.1282,45.9677"
           style="color:#000000;fill:none;stroke:#000000;stroke-width:3.91048479;stroke-linecap:butt;stroke-linejoin:miter;stroke-miterlimit:4;stroke-opacity:1;stroke-dasharray:none;stroke-dashoffset:0;marker:none;visibility:visible;display:inline;overflow:visible"
           inkscape:connector-curvature="0" />
        <path
           id="path3090"
           d="m 4660.9598,1001.4901 c 0.9986,13.313 -1.8055,27.5915 1.3911,40.3958"
           style="color:#000000;fill:none;stroke:#000000;stroke-width:3.91048479;stroke-linecap:butt;stroke-linejoin:miter;stroke-miterlimit:4;stroke-opacity:1;stroke-dasharray:none;stroke-dashoffset:0;marker:none;visibility:visible;display:inline;overflow:visible"
           inkscape:connector-curvature="0" />
        <path
           id="path3092"
           d="m 4638.7035,998.70417 c 2.3184,4.64323 4.6368,9.28643 6.9551,13.92963 2.7235,5.4545 5.9252,15.376 6.9551,19.5014"
           style="color:#000000;fill:none;stroke:#000000;stroke-width:3.91048479;stroke-linecap:butt;stroke-linejoin:miter;stroke-miterlimit:4;stroke-opacity:1;stroke-dasharray:none;stroke-dashoffset:0;marker:none;visibility:visible;display:inline;overflow:visible"
           inkscape:connector-curvature="0" />
        <path
           id="path3094"
           d="m 4626.1842,1000.0971 c 6.0019,12.0205 9.7373,26.9848 9.7373,40.3959"
           style="color:#000000;fill:none;stroke:#000000;stroke-width:3.91048479;stroke-linecap:butt;stroke-linejoin:miter;stroke-miterlimit:4;stroke-opacity:1;stroke-dasharray:none;stroke-dashoffset:0;marker:none;visibility:visible;display:inline;overflow:visible"
           inkscape:connector-curvature="0" />
        <path
           id="path3096"
           d="m 4698.5174,1062.7803 c 4.4697,8.9517 2.7822,31.267 2.7822,41.7888"
           style="color:#000000;fill:none;stroke:#000000;stroke-width:3.91048479;stroke-linecap:butt;stroke-linejoin:miter;stroke-miterlimit:4;stroke-opacity:1;stroke-dasharray:none;stroke-dashoffset:0;marker:none;visibility:visible;display:inline;overflow:visible"
           inkscape:connector-curvature="0" />
        <path
           id="path3098"
           d="m 4679.0431,1065.5662 c 0,1.8573 0,1.8573 0,0 0,-15.7663 5.6,31.2052 11.1283,45.9677"
           style="color:#000000;fill:none;stroke:#000000;stroke-width:3.91048479;stroke-linecap:butt;stroke-linejoin:miter;stroke-miterlimit:4;stroke-opacity:1;stroke-dasharray:none;stroke-dashoffset:0;marker:none;visibility:visible;display:inline;overflow:visible"
           inkscape:connector-curvature="0" />
        <path
           id="path3100"
           d="m 4665.1329,1069.7451 c 0,-27.0666 0.8807,31.758 2.782,43.1818 0.2288,1.374 0,2.7859 0,4.1789"
           style="color:#000000;fill:none;stroke:#000000;stroke-width:3.91048479;stroke-linecap:butt;stroke-linejoin:miter;stroke-miterlimit:4;stroke-opacity:1;stroke-dasharray:none;stroke-dashoffset:0;marker:none;visibility:visible;display:inline;overflow:visible"
           inkscape:connector-curvature="0" />
        <path
           id="path3102"
           d="m 4645.6586,1050.2437 c 3.6834,22.1316 2.7821,49.6632 2.7821,72.4339"
           style="color:#000000;fill:none;stroke:#000000;stroke-width:3.91048479;stroke-linecap:butt;stroke-linejoin:miter;stroke-miterlimit:4;stroke-opacity:1;stroke-dasharray:none;stroke-dashoffset:0;marker:none;visibility:visible;display:inline;overflow:visible"
           inkscape:connector-curvature="0" />
        <path
           id="path3104"
           d="m 4627.5753,1062.7803 c 2.9385,17.6551 9.7371,46.9286 9.7371,69.648"
           style="color:#000000;fill:none;stroke:#000000;stroke-width:3.91048479;stroke-linecap:butt;stroke-linejoin:miter;stroke-miterlimit:4;stroke-opacity:1;stroke-dasharray:none;stroke-dashoffset:0;marker:none;visibility:visible;display:inline;overflow:visible"
           inkscape:connector-curvature="0" />
        <path
           id="path3106"
           d="m 4603.9279,1059.9944 c 4.2289,25.4084 0.8974,44.732 9.7372,66.8621"
           style="color:#000000;fill:none;stroke:#000000;stroke-width:3.91048479;stroke-linecap:butt;stroke-linejoin:miter;stroke-miterlimit:4;stroke-opacity:1;stroke-dasharray:none;stroke-dashoffset:0;marker:none;visibility:visible;display:inline;overflow:visible"
           inkscape:connector-curvature="0" />
        <path
           id="path3108"
           d="m 4712.4277,1124.0706 c 2.3081,13.8681 0.9838,24.835 4.1731,37.6099"
           style="color:#000000;fill:none;stroke:#000000;stroke-width:3.91048479;stroke-linecap:butt;stroke-linejoin:miter;stroke-miterlimit:4;stroke-opacity:1;stroke-dasharray:none;stroke-dashoffset:0;marker:none;visibility:visible;display:inline;overflow:visible"
           inkscape:connector-curvature="0" />
        <path
           id="path3110"
           d="m 4688.7803,1126.8565 c 2.1798,13.0971 8.3462,32.2531 8.3462,46.0314"
           style="color:#000000;fill:none;stroke:#000000;stroke-width:3.91048479;stroke-linecap:butt;stroke-linejoin:miter;stroke-miterlimit:4;stroke-opacity:1;stroke-dasharray:none;stroke-dashoffset:0;marker:none;visibility:visible;display:inline;overflow:visible"
           sodipodi:nodetypes="cs"
           inkscape:connector-curvature="0" />
        <path
           id="path3112"
           d="m 4672.088,1133.8213 c 0,13.8041 5.5641,28.4208 5.5641,43.1817"
           style="color:#000000;fill:none;stroke:#000000;stroke-width:3.91048479;stroke-linecap:butt;stroke-linejoin:miter;stroke-miterlimit:4;stroke-opacity:1;stroke-dasharray:none;stroke-dashoffset:0;marker:none;visibility:visible;display:inline;overflow:visible"
           inkscape:connector-curvature="0" />
        <path
           id="path3114"
           d="m 4658.1778,1131.0354 c 0,10.1021 0.3052,27.689 4.1731,43.1817 0.2248,0.9009 0,1.8573 0,2.7859"
           style="color:#000000;fill:none;stroke:#000000;stroke-width:3.91048479;stroke-linecap:butt;stroke-linejoin:miter;stroke-miterlimit:4;stroke-opacity:1;stroke-dasharray:none;stroke-dashoffset:0;marker:none;visibility:visible;display:inline;overflow:visible"
           inkscape:connector-curvature="0" />
        <path
           id="path3116"
           d="m 4638.7035,1136.6072 c 2.0979,8.4035 2.782,28.6991 2.782,41.7888 0,0.9286 0,1.8573 0,2.7859"
           style="color:#000000;fill:none;stroke:#000000;stroke-width:3.91048479;stroke-linecap:butt;stroke-linejoin:miter;stroke-miterlimit:4;stroke-opacity:1;stroke-dasharray:none;stroke-dashoffset:0;marker:none;visibility:visible;display:inline;overflow:visible"
           inkscape:connector-curvature="0" />
        <path
           id="path3118"
           d="m 4615.0561,1135.2142 c 0,9.9213 8.3064,38.9036 11.1281,45.9677"
           style="color:#000000;fill:none;stroke:#000000;stroke-width:3.91048479;stroke-linecap:butt;stroke-linejoin:miter;stroke-miterlimit:4;stroke-opacity:1;stroke-dasharray:none;stroke-dashoffset:0;marker:none;visibility:visible;display:inline;overflow:visible"
           inkscape:connector-curvature="0" />
        <path
           id="path3120"
           d="m 4583.0626,1087.8536 c 0,13.8269 11.5883,37.1172 13.9102,55.7184 1.4919,11.9519 0.857,24.0006 -5.5642,32.0381"
           style="color:#000000;fill:none;stroke:#000000;stroke-width:3.91048479;stroke-linecap:butt;stroke-linejoin:miter;stroke-miterlimit:4;stroke-opacity:1;stroke-dasharray:none;stroke-dashoffset:0;marker:none;visibility:visible;display:inline;overflow:visible"
           inkscape:connector-curvature="0" />
        <path
           id="path3122"
           d="m 4704.0816,1188.1467 c 2.0089,16.0944 0,33.9714 0,50.1465 0,14.3939 4.2003,40.0044 4.2003,54.3984"
           style="color:#000000;fill:none;stroke:#000000;stroke-width:3.91048479;stroke-linecap:butt;stroke-linejoin:miter;stroke-miterlimit:4;stroke-opacity:1;stroke-dasharray:none;stroke-dashoffset:0;marker:none;visibility:visible;display:inline;overflow:visible"
           sodipodi:nodetypes="css"
           inkscape:connector-curvature="0" />
        <path
           id="path3124"
           d="m 4688.7803,1183.9678 c 0,18.3329 1.5893,32.2674 -1.3819,50.1193 -2.3154,13.9113 -1.3911,30.3888 -1.3911,44.5747"
           style="color:#000000;fill:none;stroke:#000000;stroke-width:3.91048479;stroke-linecap:butt;stroke-linejoin:miter;stroke-miterlimit:4;stroke-opacity:1;stroke-dasharray:none;stroke-dashoffset:0;marker:none;visibility:visible;display:inline;overflow:visible"
           sodipodi:nodetypes="css"
           inkscape:connector-curvature="0" />
        <path
           id="path3126"
           d="m 4669.306,1189.5397 c 0,20.0963 -4.1731,38.2759 -4.1731,58.5042"
           style="color:#000000;fill:none;stroke:#000000;stroke-width:3.91048479;stroke-linecap:butt;stroke-linejoin:miter;stroke-miterlimit:4;stroke-opacity:1;stroke-dasharray:none;stroke-dashoffset:0;marker:none;visibility:visible;display:inline;overflow:visible"
           sodipodi:nodetypes="cs"
           inkscape:connector-curvature="0" />
        <path
           id="path3128"
           d="m 4647.0496,1188.1467 c 3.8761,7.7629 -3.4912,34.3178 -3.4912,43.9192"
           style="color:#000000;fill:none;stroke:#000000;stroke-width:3.91048479;stroke-linecap:butt;stroke-linejoin:miter;stroke-miterlimit:4;stroke-opacity:1;stroke-dasharray:none;stroke-dashoffset:0;marker:none;visibility:visible;display:inline;overflow:visible"
           sodipodi:nodetypes="cs"
           inkscape:connector-curvature="0" />
        <path
           sodipodi:nodetypes="cs"
           id="path3130"
           d="m 4623.4022,1188.1467 c 0.6514,2.6094 -1.2754,16.4028 -1.2754,27.4708"
           style="color:#000000;fill:none;stroke:#000000;stroke-width:3.91048479;stroke-linecap:butt;stroke-linejoin:miter;stroke-miterlimit:4;stroke-opacity:1;stroke-dasharray:none;stroke-dashoffset:0;marker:none;visibility:visible;display:inline;overflow:visible"
           inkscape:connector-curvature="0" />
        <path
           style="color:#000000;fill:none;stroke:#000000;stroke-width:3.91048479;stroke-linecap:butt;stroke-linejoin:miter;stroke-miterlimit:4;stroke-opacity:1;stroke-dasharray:none;stroke-dashoffset:0;marker:none;visibility:visible;display:inline;overflow:visible"
           d="m 4723.3296,1209.5373 c 1.2932,2.5899 0,16.6684 0,21.732 0,6.8208 -0.7,13.0369 -0.7,19.6289 0,8.7056 0.7,17.246 0.7,25.9381 0,7.0618 1.5128,12.4372 4.9005,17.5259 2.3835,3.5802 2.7064,6.9164 5.6005,9.8144"
           id="path3162"
           inkscape:connector-curvature="0" />
        <path
           style="color:#000000;fill:none;stroke:#000000;stroke-width:3.91048479;stroke-linecap:butt;stroke-linejoin:miter;stroke-miterlimit:4;stroke-opacity:1;stroke-dasharray:none;stroke-dashoffset:0;marker:none;visibility:visible;display:inline;overflow:visible"
           d="m 4564.5198,1099.6987 c 0,0.8728 0,0.8728 0,0 0,-14.6759 0,18.0632 0,24.8748 0,5.9401 3.9276,10.844 3.9276,17.0195 0,5.4494 1.3092,9.657 1.3092,15.0558 0,2.8536 -1.3259,6.613 -1.9638,9.1644"
           id="path1650"
           inkscape:connector-curvature="0" />
      </g>
    </g>
  </g>
</svg>
